<?xml version="1.0" encoding="utf-8"?>
<!-- Generator: Adobe Illustrator 26.0.3, SVG Export Plug-In . SVG Version: 6.00 Build 0)  -->
<svg version="1.1" id="Layer_1" xmlns="http://www.w3.org/2000/svg" xmlns:xlink="http://www.w3.org/1999/xlink" x="0px" y="0px"
	 viewBox="0 0 1831.2 771.7" style="enable-background:new 0 0 1831.2 771.7;" xml:space="preserve">
<style type="text/css">
	.st0{fill:#FFFFFF;}
	.st1{fill:none;stroke:#000000;stroke-width:3;stroke-linecap:round;stroke-linejoin:round;stroke-miterlimit:10;}
	.st2{fill:none;stroke:#000000;stroke-linecap:round;stroke-linejoin:round;stroke-miterlimit:10;}
</style>
<g>
	<rect class="st0" width="1831.2" height="771.7"/>
	<g>
		<path d="M825.7,660.4c8,0,11.1,3.8,11.1,11.4v2.4c0,5.4-1.5,8.8-6,10.2c5,1.4,6.9,5.3,6.9,11v4.3c0,7.7-3.7,12-11.7,12h-11.8
			v-51.3H825.7z M824.3,682.1c4.5,0,6.9-1.5,6.9-6.8v-3c0-4.5-1.5-6.7-5.6-6.7h-5.6v16.6H824.3z M826,706.4c4.2,0,6.1-2.2,6.1-7
			v-4.5c0-5.7-2.3-7.6-7.2-7.6h-5v19.1H826z"/>
		<path d="M856.1,660.4c8.1,0,11.4,4.1,11.4,11.7v4.2c0,5.6-2,9.2-6.4,10.6c4.7,1.4,6.4,5.2,6.4,10.7v8c0,2.3,0.1,4.4,1,6.2h-5.8
			c-0.7-1.5-1-2.8-1-6.2v-8.1c0-5.8-2.7-7.6-7.5-7.6h-4v21.9h-5.7v-51.3H856.1z M854.7,684.5c4.5,0,7.3-1.5,7.3-7v-4.9
			c0-4.6-1.7-7-5.9-7h-5.6v19H854.7z"/>
		<path d="M881.2,701.3l-2,10.3h-5.3l9.8-51.3h8.3l9.8,51.3h-5.7l-2-10.3H881.2z M881.9,696.4h11.4l-5.8-29.6L881.9,696.4z"/>
		<path d="M930.4,672.7v1.4h-5.4v-1.7c0-4.6-1.8-7.3-5.9-7.3c-4.1,0-5.9,2.7-5.9,7.3c0,11.5,17.2,12.6,17.2,27
			c0,7.8-3.7,12.8-11.6,12.8c-7.8,0-11.5-5.1-11.5-12.8v-2.9h5.3v3.2c0,4.6,1.9,7.3,6,7.3c4.1,0,6-2.7,6-7.3
			c0-11.4-17.1-12.5-17.1-27c0-7.9,3.7-12.8,11.4-12.8C926.7,659.8,930.4,664.9,930.4,672.7z"/>
		<path d="M941.6,649.9h5.7l-6.8,7.5h-4L941.6,649.9z M937.2,660.4h5.7v51.3h-5.7V660.4z"/>
		<path d="M950.6,711.6v-51.3h5.7v46.1H971v5.2H950.6z"/>
		<path d="M982.9,660.4v51.3h-5.7v-51.3H982.9z"/>
		<path d="M996.4,701.3l-2,10.3h-5.3l9.8-51.3h8.3l9.8,51.3h-5.7l-2-10.3H996.4z M997.1,696.4h11.4l-5.8-29.6L997.1,696.4z"/>
	</g>
	<g>
		<line class="st1" x1="120.3" y1="614.6" x2="1705.2" y2="614.6"/>
		<g>
			<g>
				<line class="st1" x1="902.3" y1="251.3" x2="902.3" y2="261.9"/>
				<line class="st1" x1="907.6" y1="256.6" x2="897" y2="256.6"/>
			</g>
			<g>
				<line class="st1" x1="1088.3" y1="195.7" x2="1088.3" y2="204.5"/>
				<line class="st1" x1="1092.7" y1="200.1" x2="1083.9" y2="200.1"/>
			</g>
			<g>
				<line class="st1" x1="1616.3" y1="390.6" x2="1616.3" y2="401.2"/>
				<line class="st1" x1="1621.6" y1="395.9" x2="1611" y2="395.9"/>
			</g>
			<g>
				<line class="st1" x1="259.1" y1="371.8" x2="259.1" y2="382.4"/>
				<line class="st1" x1="264.4" y1="377.1" x2="253.9" y2="377.1"/>
			</g>
			<g>
				<line class="st1" x1="192.8" y1="478.6" x2="192.8" y2="489.2"/>
				<line class="st1" x1="198.1" y1="483.9" x2="187.5" y2="483.9"/>
			</g>
			<g>
				<line class="st1" x1="1276.5" y1="390.6" x2="1276.5" y2="401.2"/>
				<line class="st1" x1="1281.8" y1="395.9" x2="1271.2" y2="395.9"/>
			</g>
			<g>
				<line class="st1" x1="437.1" y1="442.3" x2="437.1" y2="458.1"/>
				<line class="st1" x1="445" y1="450.2" x2="429.2" y2="450.2"/>
			</g>
			<g>
				<line class="st1" x1="1044.4" y1="490" x2="1044.4" y2="505.8"/>
				<line class="st1" x1="1052.3" y1="497.9" x2="1036.5" y2="497.9"/>
			</g>
		</g>
		<g>
			<path class="st0" d="M651.6,595.2v-8.4c-11.2-1-22.8-2-34.7-2.9c-49.1-71-82.2-77.3-100-77.3h-6c-17,0-48.3,5.8-94.2,69.1
				c-6.4-0.1-12.4-0.2-18-0.3l0,0c-15.4-58.2-25.3-60.2-29.8-60.2h-7c-4.5,0-14.4,2-29.7,60.1c-1.9,0-2.9,0.1-7,0.1
				c-1.4,0-2.8,0-4.2,0.1l0,0c-33.1-42.6-55.9-46.6-68.6-46.6h-7.8h0c-13.2,0-37.1,4.4-72,51.1l0,0c-11.7,0.6-23.4,1.2-35,1.9l0,8.4
				c9.5-0.6,19.2-1.1,28.8-1.6l0,0c-5.3,7.6-10.9,16.2-16.7,25.9h17.8c6.1-9.9,12-18.8,17.8-26.9l0,0c41.1-1.8,81.2-2.9,113.6-3.5
				c2.5,0,4.4-0.1,10.6-0.2l0,0c5,6.8,10.1,14.2,15.3,22.4c-0.6,2.6-1.2,5.4-1.8,8.1l24.4,0c-4.1-6.9-8.1-13.2-12-19
				c1-4.2,2-8.2,2.9-11.9l0,0c9.9-0.1,18-0.1,23.7-0.1c6.1,0,14.9,0,25.7,0.2l0,0c2,7.8,4.1,16.7,6.2,26.6l0,0
				c-0.9,1.4-1.7,2.8-2.6,4.3l14,0c6.7-11,13.3-21.1,19.7-30.3l0,0c50.9,1,120.9,3.1,184,7.5l0,0c4.8,7.1,9.7,14.8,14.6,22.9l13,0
				c-4.7-7.8-9.3-15.1-13.7-21.9l0,0C632.7,593.5,642.3,594.3,651.6,595.2z M293,576c-29.6,0.6-64.9,1.6-101.3,3.1c0,0,0,0,0,0l0,0
				c0,0,0,0,0,0c18.4-23.6,35.6-38.1,52.1-42.2c3.1-0.8,7-0.9,8.1-0.8c16.3,1.8,33.2,16.9,51.3,39.6l0,0
				C299.1,575.9,296.6,576,293,576z M361.9,575.2c-5.3,0-12.6,0.1-21.5,0.1c0,0,0,0,0,0l0,0c0,0,0,0,0,0
				c11.8-44.2,19.7-52.3,22.5-53.7c0,0,0,0-0.1,0l0.1,0c0,0,0,0,0,0c1.4,0.8,2.6,2.2,4,4.2c4,5.8,10.3,19,18.5,49.5l0,0
				C375.6,575.3,367.6,575.2,361.9,575.2z M403.5,595c-0.9-3.9-1.8-7.6-2.7-11.1c3.2,0,6.6,0.1,10,0.1l0,0
				C408.5,587.5,406,591.2,403.5,595z M602.9,583c-59.1-3.9-123.4-6-172-6.9l0.2-0.3c27.4-37.1,52.6-58.7,76.8-62.2
				c6.6-1,10.1-0.5,12.1-0.2C545.8,517.8,573.1,540.7,602.9,583L602.9,583z"/>
			<path class="st2" d="M610.6,583.5c-48.9-70.6-82-76.8-99.7-76.8"/>
			<path class="st2" d="M630.6,614.6c-4.8-8-9.5-15.5-14.1-22.3"/>
			<path class="st2" d="M398.3,614.6c41.7-68.6,78.5-102,112.7-102"/>
			<path class="st2" d="M403.6,595c-3.2,4.8-6.4,10-9.7,15.3"/>
			<path class="st2" d="M416.8,575.8c-1.9,2.7-3.9,5.4-5.9,8.3"/>
			<path class="st2" d="M425,584.3c2.1-2.9,4.1-5.8,6.1-8.5"/>
			<path class="st2" d="M313.3,575.7c-33.1-42.7-55.9-46.8-68.7-46.8"/>
			<path class="st2" d="M327.3,595.2c-2.7-4-5.3-7.7-7.8-11.2"/>
			<path class="st2" d="M339.6,614.6c-2.1-3.5-4.2-6.9-6.2-10.1"/>
			<path class="st2" d="M329.3,586.8c-0.7-1-1.4-2-2.1-2.9"/>
			<path class="st2" d="M361.9,515.3c5.1,0,17.3,2.6,36.5,87.7"/>
			<path class="st2" d="M329.3,586.8c-1.5,6-3,12.6-4.6,19.7"/>
			<path class="st2" d="M400.9,583.9c-0.7-2.9-1.4-5.7-2.2-8.4"/>
			<path class="st2" d="M335.4,595.6c-1.4,5.9-2.8,12.2-4.3,19"/>
			<path class="st2" d="M385.4,575.3c0.7,2.7,1.4,5.5,2.2,8.4"/>
			<path class="st2" d="M342.7,541.6c8.7-19.1,14.5-20.1,15.3-20.3c2-0.6,3.5-0.5,4.9,0.3"/>
			<path class="st2" d="M166.3,588.7c2.1-3,4.2-5.9,6.3-8.7"/>
			<path class="st2" d="M159.4,614.6c31.4-51.2,59.2-78.8,85.2-78.8c1.3,0,2.7,0.1,4,0.2"/>
			<path class="st2" d="M185.2,587.8c2.2-3,4.3-5.9,6.5-8.6"/>
			<path class="st2" d="M622.9,592.8c-4.6-0.3-9.2-0.7-13.9-1"/>
			<path class="st2" d="M602.9,583c4.7,0.3,9.4,0.6,14,1"/>
			<line class="st2" x1="365.2" y1="583.6" x2="365.2" y2="575.2"/>
			<line class="st2" x1="370.8" y1="583.6" x2="370.8" y2="575.3"/>
			<line class="st2" x1="376.3" y1="583.6" x2="376.3" y2="575.3"/>
			<line class="st2" x1="381.8" y1="583.7" x2="381.8" y2="575.3"/>
			<line class="st2" x1="403.9" y1="584.1" x2="403.9" y2="575.8"/>
			<line class="st2" x1="409.5" y1="584.1" x2="409.5" y2="575.8"/>
			<line class="st2" x1="415" y1="578.2" x2="415" y2="575.8"/>
			<line class="st2" x1="431.6" y1="584.4" x2="431.6" y2="576.1"/>
			<line class="st2" x1="437.1" y1="584.5" x2="437.1" y2="576.2"/>
			<line class="st2" x1="442.6" y1="584.7" x2="442.6" y2="576.3"/>
			<line class="st2" x1="448.2" y1="584.8" x2="448.2" y2="576.4"/>
			<line class="st2" x1="453.7" y1="584.9" x2="453.7" y2="576.6"/>
			<line class="st2" x1="459.2" y1="585.1" x2="459.2" y2="576.7"/>
			<line class="st2" x1="464.7" y1="585.2" x2="464.7" y2="576.8"/>
			<line class="st2" x1="470.3" y1="585.4" x2="470.3" y2="577"/>
			<line class="st2" x1="475.8" y1="585.5" x2="475.8" y2="577.1"/>
			<line class="st2" x1="481.3" y1="585.7" x2="481.3" y2="577.3"/>
			<line class="st2" x1="486.8" y1="585.9" x2="486.8" y2="577.5"/>
			<line class="st2" x1="492.4" y1="586" x2="492.4" y2="577.7"/>
			<line class="st2" x1="497.9" y1="586.2" x2="497.9" y2="577.8"/>
			<line class="st2" x1="503.4" y1="586.4" x2="503.4" y2="578"/>
			<line class="st2" x1="508.9" y1="586.6" x2="508.9" y2="578.3"/>
			<line class="st2" x1="514.5" y1="586.8" x2="514.5" y2="578.4"/>
			<line class="st2" x1="520" y1="587" x2="520" y2="578.6"/>
			<line class="st2" x1="525.5" y1="587.3" x2="525.5" y2="578.9"/>
			<line class="st2" x1="531.1" y1="587.5" x2="531.1" y2="579.1"/>
			<line class="st2" x1="536.6" y1="587.7" x2="536.6" y2="579.4"/>
			<line class="st2" x1="542.1" y1="588" x2="542.1" y2="579.6"/>
			<line class="st2" x1="547.6" y1="588.2" x2="547.6" y2="579.9"/>
			<line class="st2" x1="553.2" y1="588.5" x2="553.2" y2="580.1"/>
			<line class="st2" x1="558.7" y1="588.8" x2="558.7" y2="580.5"/>
			<line class="st2" x1="564.2" y1="589.1" x2="564.2" y2="580.7"/>
			<line class="st2" x1="569.7" y1="589.4" x2="569.7" y2="581"/>
			<line class="st2" x1="575.3" y1="589.6" x2="575.3" y2="581.3"/>
			<line class="st2" x1="580.8" y1="590" x2="580.8" y2="581.6"/>
			<line class="st2" x1="586.3" y1="590.3" x2="586.3" y2="582"/>
			<line class="st2" x1="591.9" y1="590.6" x2="591.9" y2="582.3"/>
			<line class="st2" x1="597.4" y1="591" x2="597.4" y2="582.6"/>
			<line class="st2" x1="602.9" y1="591.3" x2="602.9" y2="583"/>
			<line class="st2" x1="608.4" y1="591.7" x2="608.4" y2="583.3"/>
			<line class="st2" x1="614" y1="592.1" x2="614" y2="583.7"/>
			<line class="st2" x1="619.5" y1="592.5" x2="619.5" y2="584.1"/>
			<line class="st2" x1="625" y1="593" x2="625" y2="584.6"/>
			<line class="st2" x1="630.5" y1="593.4" x2="630.5" y2="585"/>
			<line class="st2" x1="636.1" y1="593.8" x2="636.1" y2="585.5"/>
			<line class="st2" x1="641.6" y1="594.3" x2="641.6" y2="586"/>
			<line class="st2" x1="647.1" y1="594.8" x2="647.1" y2="586.4"/>
			<path class="st2" d="M309.5,584.1c1,0,2.2,0,3.5-0.1c3.5-0.1,6.8-0.1,10-0.1c4.6-0.1,9.1-0.1,13.2-0.2c0.7,0,1.4,0,2,0"/>
			<path class="st2" d="M321,575.6c-4.4,0.1-9,0.1-13.8,0.2c-1.5,0-2.8,0-4,0.1"/>
			<path class="st2" d="M340.4,575.3c-0.7,0-1.3,0-2,0c-3.3,0-5,0-6.2,0"/>
			<line class="st2" x1="358.6" y1="583.6" x2="358.6" y2="575.2"/>
			<line class="st2" x1="353.1" y1="583.6" x2="353.1" y2="575.3"/>
			<line class="st2" x1="347.6" y1="583.6" x2="347.6" y2="575.3"/>
			<line class="st2" x1="342.1" y1="583.6" x2="342.1" y2="575.3"/>
			<line class="st2" x1="336.5" y1="583.6" x2="336.5" y2="575.3"/>
			<line class="st2" x1="330.9" y1="583.7" x2="330.9" y2="575.4"/>
			<line class="st2" x1="325.4" y1="583.6" x2="325.4" y2="575.5"/>
			<line class="st2" x1="319.8" y1="583.7" x2="319.8" y2="575.7"/>
			<line class="st2" x1="314.2" y1="583.6" x2="314.2" y2="575.7"/>
			<line class="st2" x1="308.7" y1="584.1" x2="308.7" y2="575.7"/>
			<line class="st2" x1="303.1" y1="584.2" x2="303.1" y2="575.8"/>
			<line class="st2" x1="297.6" y1="584.3" x2="297.6" y2="575.9"/>
			<line class="st2" x1="292.3" y1="584.4" x2="292.3" y2="576.1"/>
			<line class="st2" x1="286.8" y1="584.5" x2="286.8" y2="576.2"/>
			<line class="st2" x1="281.3" y1="584.7" x2="281.3" y2="576.3"/>
			<line class="st2" x1="275.7" y1="584.8" x2="275.7" y2="576.4"/>
			<line class="st2" x1="270.2" y1="584.9" x2="270.2" y2="576.6"/>
			<line class="st2" x1="264.7" y1="585.1" x2="264.7" y2="576.7"/>
			<line class="st2" x1="259.1" y1="585.2" x2="259.1" y2="576.8"/>
			<line class="st2" x1="253.6" y1="585.4" x2="253.6" y2="577"/>
			<line class="st2" x1="248.1" y1="585.5" x2="248.1" y2="577.1"/>
			<line class="st2" x1="242.6" y1="585.7" x2="242.6" y2="577.3"/>
			<line class="st2" x1="237" y1="585.9" x2="237" y2="577.5"/>
			<line class="st2" x1="231.5" y1="586" x2="231.5" y2="577.7"/>
			<line class="st2" x1="226" y1="586.2" x2="226" y2="577.8"/>
			<line class="st2" x1="220.5" y1="586.4" x2="220.5" y2="578"/>
			<line class="st2" x1="214.9" y1="586.6" x2="214.9" y2="578.3"/>
			<line class="st2" x1="209.4" y1="586.8" x2="209.4" y2="578.4"/>
			<line class="st2" x1="203.9" y1="587" x2="203.9" y2="578.6"/>
			<line class="st2" x1="198.4" y1="587.3" x2="198.4" y2="578.9"/>
			<line class="st2" x1="192.8" y1="587.5" x2="192.8" y2="579.1"/>
			<line class="st2" x1="187.3" y1="587.7" x2="187.3" y2="584.9"/>
			<line class="st2" x1="170.7" y1="582.6" x2="170.7" y2="580.1"/>
			<line class="st2" x1="165.2" y1="588.8" x2="165.2" y2="580.5"/>
			<line class="st2" x1="159.7" y1="589.1" x2="159.7" y2="580.7"/>
			<line class="st2" x1="154.1" y1="589.4" x2="154.1" y2="581"/>
			<line class="st2" x1="148.6" y1="589.6" x2="148.6" y2="581.3"/>
			<line class="st2" x1="143.1" y1="590" x2="143.1" y2="581.6"/>
			<path class="st2" d="M330.1,583.8c-0.2,1-0.5,2-0.7,3"/>
			<g>
				<path class="st1" d="M431.1,575.8c27.4-37.1,52.6-58.7,76.8-62.2c6.6-1,10.1-0.5,12.1-0.2c25.8,4.4,53.1,27.3,83,69.5l0,0
					c-59.1-3.9-123.4-6-172-6.9"/>
				<path class="st1" d="M400.9,583.9c0.9,3.5,1.8,7.2,2.7,11.1c2.5-3.8,4.9-7.5,7.3-10.9l0,0C407.4,584,404.1,583.9,400.9,583.9z"
					/>
				<path class="st1" d="M362.9,521.6c-2.8,1.4-10.7,9.4-22.5,53.7v0c8.9,0,16.2-0.1,21.5-0.1c5.7,0,13.7,0,23.5,0.1l0,0
					c-8.2-30.5-14.5-43.8-18.5-49.5C365.5,523.8,364.3,522.3,362.9,521.6L362.9,521.6z"/>
				<path class="st1" d="M303.1,575.8c-4,0.1-6.5,0.1-10.2,0.2c-29.6,0.6-64.9,1.6-101.3,3.1l0,0c18.4-23.6,35.6-38.1,52.1-42.2
					c3.1-0.8,7-0.9,8.1-0.8C268.1,538,285,553,303.1,575.8"/>
				<path class="st1" d="M137.6,590.3V582l0,0c11.6-0.7,23.3-1.3,35-1.9l0,0c34.9-46.8,58.8-51.1,72-51.1h0h7.8
					c12.7,0,35.5,4.1,68.6,46.6l0,0c1.4,0,2.8,0,4.2-0.1c4.2-0.1,5.1-0.1,7-0.1c15.3-58.1,25.2-60.1,29.7-60.1h7
					c4.5,0,14.4,2,29.8,60.2l0,0c5.6,0.1,11.7,0.2,18,0.3c45.9-63.3,77.2-69.1,94.2-69.1h6c17.7,0,50.9,6.3,100,77.3l0,0
					c11.9,0.9,23.5,1.8,34.7,2.9v8.4c-9.3-0.9-18.9-1.7-28.7-2.4l0,0c4.5,6.8,9,14,13.7,21.9l-13,0c-4.9-8.1-9.8-15.8-14.6-22.9l0,0
					c-63.2-4.4-133.1-6.5-184-7.5l0,0c-6.5,9.2-13,19.3-19.7,30.3l-14,0c0.9-1.4,1.7-2.9,2.6-4.3l0,0c-2.2-9.9-4.3-18.8-6.2-26.6
					l0,0c-10.8-0.1-19.6-0.2-25.7-0.2c-5.7,0-13.8,0-23.7,0.1l0,0c-0.9,3.7-1.9,7.7-2.9,11.9c3.9,5.8,7.9,12.1,12,19l-24.4,0
					c0.6-2.8,1.2-5.5,1.8-8.1c-5.2-8.1-10.3-15.6-15.3-22.4l0,0c-6.2,0.1-8.1,0.1-10.6,0.2c-32.4,0.6-72.5,1.7-113.6,3.5l0,0
					c-5.8,8-11.7,17-17.8,26.9h-17.8c5.8-9.7,11.4-18.3,16.7-25.9l0,0C156.7,589.2,147.1,589.7,137.6,590.3L137.6,590.3z"/>
			</g>
			<g>
				<line class="st2" x1="514.5" y1="578.4" x2="514.5" y2="513"/>
				<line class="st2" x1="503.3" y1="578" x2="483.3" y2="523"/>
				<line class="st2" x1="488.3" y1="577.5" x2="459.1" y2="542.6"/>
				<line class="st2" x1="458.9" y1="576.6" x2="439.2" y2="565.2"/>
				<line class="st2" x1="563.4" y1="580.4" x2="589.7" y2="565.2"/>
				<line class="st2" x1="539" y1="579.4" x2="569.7" y2="542.8"/>
				<line class="st2" x1="525.3" y1="578.9" x2="545.5" y2="523.5"/>
			</g>
			<g>
				<line class="st2" x1="362.9" y1="575.2" x2="362.9" y2="522.1"/>
				<line class="st2" x1="350.8" y1="575.2" x2="345" y2="559.2"/>
				<line class="st2" x1="375.1" y1="575.2" x2="380.9" y2="559.4"/>
			</g>
			<g>
				<line class="st2" x1="248.1" y1="577.1" x2="248.1" y2="536.1"/>
				<line class="st2" x1="241.1" y1="577.4" x2="228.7" y2="543.4"/>
				<line class="st2" x1="232.1" y1="577.5" x2="213.3" y2="555.2"/>
				<line class="st2" x1="215.9" y1="578" x2="200.1" y2="568.9"/>
				<line class="st2" x1="283.9" y1="575.9" x2="297" y2="568.4"/>
				<line class="st2" x1="264.9" y1="576.6" x2="283.7" y2="554.2"/>
				<line class="st2" x1="255.3" y1="576.9" x2="268" y2="542"/>
			</g>
		</g>
		<g>
			<polygon class="st0" points="674.9,402.1 620.4,402.1 620.2,397.6 610.7,614.6 620.2,614.6 629.7,614.6 621.9,437.6 674.9,437.6 
							"/>
			<line class="st2" x1="624.4" y1="614.6" x2="620.2" y2="397.6"/>
			<line class="st2" x1="615.9" y1="614.6" x2="620.2" y2="397.6"/>
			<line class="st2" x1="608.3" y1="586.6" x2="632" y2="586.6"/>
			<line class="st2" x1="610.7" y1="559.6" x2="629.7" y2="559.6"/>
			<line class="st2" x1="612.7" y1="532.6" x2="627.7" y2="532.6"/>
			<line class="st2" x1="613.9" y1="505.6" x2="626.4" y2="505.6"/>
			<line class="st2" x1="615.4" y1="478.6" x2="624.9" y2="478.6"/>
			<g>
				<line class="st1" x1="620.2" y1="397.6" x2="620.4" y2="402.1"/>
				<polygon class="st1" points="674.9,402.1 620.4,402.1 620.2,397.6 610.7,614.6 620.2,614.6 629.7,614.6 621.9,437.6 
					674.9,437.6 				"/>
			</g>
			<line class="st2" x1="620.4" y1="402.1" x2="621.9" y2="437.6"/>
			<line class="st2" x1="649.2" y1="407.1" x2="669.9" y2="419.9"/>
			<line class="st2" x1="649.2" y1="407.1" x2="628.4" y2="419.9"/>
			<line class="st2" x1="649.2" y1="432.6" x2="628.4" y2="419.9"/>
			<line class="st2" x1="649.2" y1="432.6" x2="669.9" y2="419.9"/>
			<circle class="st2" cx="649.2" cy="419.9" r="7.5"/>
			<path class="st2" d="M641.9,418c1.6-0.6,3.3-0.9,5.1-0.9c3.7,0,7,1.4,9.6,3.6"/>
		</g>
		<g>
			<g>
				<path class="st0" d="M915.6,452.4l4.8-2.9l2.9-16.5c0,0-0.3-2.8-3.9-5.9c-3.8-3.4-3.9-7.3-3.9-7.3s-0.1,3.9-3.9,7.3
					c-3.5,3.1-3.9,5.9-3.9,5.9l2.9,16.5L915.6,452.4z"/>
			</g>
			<g>
				<path class="st0" d="M943.2,452.4l4.8-2.9L951,433c0,0-0.3-2.8-3.9-5.9c-3.8-3.4-3.9-7.3-3.9-7.3s-0.1,3.9-3.9,7.3
					c-3.5,3.1-3.9,5.9-3.9,5.9l2.9,16.5L943.2,452.4z"/>
			</g>
			<g>
				<polygon class="st0" points="929.3,614.6 938.7,614.6 932.9,569.7 929.3,569.7 925.8,569.7 920,614.6 				"/>
			</g>
			<path class="st1" d="M915.6,419.8c0,0-0.1,3.9-3.9,7.3c-3.5,3.1-3.9,5.9-3.9,5.9l2.9,16.5l4.8,2.9"/>
			<line class="st1" x1="911.2" y1="452.4" x2="929.5" y2="452.4"/>
			<path class="st1" d="M915.6,419.8c0,0,0.1,3.9,3.9,7.3c3.5,3.1,3.9,5.9,3.9,5.9l-2.9,16.5l-4.8,2.9"/>
			<path class="st1" d="M943.2,419.8c0,0,0.1,3.9,3.9,7.3c3.5,3.1,3.9,5.9,3.9,5.9l-2.9,16.5l-4.8,2.9"/>
			<line class="st1" x1="947.6" y1="452.4" x2="929.3" y2="452.4"/>
			<path class="st1" d="M943.2,419.8c0,0-0.1,3.9-3.9,7.3c-3.5,3.1-3.9,5.9-3.9,5.9l2.9,16.5l4.8,2.9"/>
			<line class="st1" x1="929.3" y1="442.9" x2="929.3" y2="569.7"/>
			<polyline class="st1" points="929.3,569.7 925.8,569.7 920,614.6 929.3,614.6 			"/>
			<line class="st1" x1="926.8" y1="515.8" x2="931.9" y2="515.8"/>
			<line class="st1" x1="926.8" y1="520.2" x2="931.9" y2="520.2"/>
			<line class="st1" x1="926.8" y1="524.6" x2="931.9" y2="524.6"/>
			<polyline class="st1" points="929.3,569.7 932.9,569.7 938.7,614.6 929.3,614.6 			"/>
			<line class="st2" x1="921" y1="607.1" x2="937.7" y2="607.1"/>
			<line class="st2" x1="927.9" y1="586.5" x2="926.7" y2="603.1"/>
			<line class="st2" x1="930.9" y1="586.5" x2="932" y2="603.1"/>
			<line class="st2" x1="924.3" y1="581.8" x2="934.4" y2="581.8"/>
			<line class="st2" x1="907.8" y1="433" x2="923.4" y2="433"/>
			<line class="st2" x1="935.4" y1="433" x2="951" y2="433"/>
			<line class="st2" x1="912.7" y1="433" x2="915.6" y2="452.4"/>
			<line class="st2" x1="918.6" y1="433" x2="915.6" y2="452.4"/>
			<line class="st2" x1="940.3" y1="433" x2="943.2" y2="452.4"/>
			<line class="st2" x1="946.1" y1="433" x2="943.2" y2="452.4"/>
			<path class="st2" d="M912.6,457.8c0.6-2,2.7-3.9,6.9-3.9s9.8,5.2,9.8,13.2"/>
			<path class="st2" d="M946.1,457.8c-0.6-2-2.7-3.9-6.9-3.9s-9.8,5.2-9.8,13.2"/>
		</g>
		<g>
			<path class="st0" d="M1510.4,518.1V388.7h-22.5v-21.7h-34.1c0,0,0,21.7,0,21.7h-24.5h0v-21.7h-34.1v21.7h-22.5v129.4h7v12.5l-7,0
				v64.1h22.5c0,0,0,19.9,0,19.9h34.1c0,0,0-19.9,0-19.9h24.5c0,0,0,19.9,0,19.9h34.1v-19.9c0,0,22.5,0,22.5,0v-64.1l-7,0v-12.5
				H1510.4z"/>
			<polyline class="st1" points="1429.3,594.7 1421.6,594.7 1421.6,530.6 			"/>
			<polyline class="st1" points="1461.4,530.6 1461.4,594.7 1453.8,594.7 			"/>
			<polyline class="st1" points="1453.8,388.7 1461.4,388.7 1461.4,518.1 			"/>
			<polyline class="st1" points="1421.6,518.1 1421.6,388.7 1429.3,388.7 			"/>
			<rect x="1425.8" y="392.6" class="st2" width="3.5" height="3.5"/>
			<rect x="1432.8" y="392.6" class="st2" width="3.5" height="3.5"/>
			<rect x="1439.8" y="392.6" class="st2" width="3.5" height="3.5"/>
			<rect x="1446.8" y="392.6" class="st2" width="3.5" height="3.5"/>
			<rect x="1453.8" y="392.6" class="st2" width="3.5" height="3.5"/>
			<rect x="1425.8" y="399.1" class="st2" width="3.5" height="3.5"/>
			<rect x="1439.8" y="399.1" class="st2" width="3.5" height="3.5"/>
			<rect x="1453.8" y="399.1" class="st2" width="3.5" height="3.5"/>
			<rect x="1425.8" y="405.6" class="st2" width="3.5" height="3.5"/>
			<rect x="1432.8" y="405.6" class="st2" width="3.5" height="3.5"/>
			<rect x="1439.8" y="405.6" class="st2" width="3.5" height="3.5"/>
			<rect x="1446.8" y="405.6" class="st2" width="3.5" height="3.5"/>
			<rect x="1453.8" y="405.6" class="st2" width="3.5" height="3.5"/>
			<rect x="1425.8" y="412.1" class="st2" width="3.5" height="3.5"/>
			<rect x="1432.8" y="412.1" class="st2" width="3.5" height="3.5"/>
			<rect x="1439.8" y="412.1" class="st2" width="3.5" height="3.5"/>
			<rect x="1453.8" y="412.1" class="st2" width="3.5" height="3.5"/>
			<rect x="1425.8" y="418.6" class="st2" width="3.5" height="3.5"/>
			<rect x="1439.8" y="418.6" class="st2" width="3.5" height="3.5"/>
			<rect x="1446.8" y="418.6" class="st2" width="3.5" height="3.5"/>
			<rect x="1425.8" y="425.1" class="st2" width="3.5" height="3.5"/>
			<rect x="1432.8" y="425.1" class="st2" width="3.5" height="3.5"/>
			<rect x="1439.8" y="425.1" class="st2" width="3.5" height="3.5"/>
			<rect x="1446.8" y="425.1" class="st2" width="3.5" height="3.5"/>
			<rect x="1453.8" y="425.1" class="st2" width="3.5" height="3.5"/>
			<rect x="1425.8" y="431.6" class="st2" width="3.5" height="3.5"/>
			<rect x="1439.8" y="431.6" class="st2" width="3.5" height="3.5"/>
			<rect x="1446.8" y="431.6" class="st2" width="3.5" height="3.5"/>
			<rect x="1453.8" y="431.6" class="st2" width="3.5" height="3.5"/>
			<rect x="1425.8" y="438.1" class="st2" width="3.5" height="3.5"/>
			<rect x="1439.8" y="438.1" class="st2" width="3.5" height="3.5"/>
			<rect x="1453.8" y="438.1" class="st2" width="3.5" height="3.5"/>
			<rect x="1425.8" y="444.6" class="st2" width="3.5" height="3.5"/>
			<rect x="1432.8" y="444.6" class="st2" width="3.5" height="3.5"/>
			<rect x="1439.8" y="444.6" class="st2" width="3.5" height="3.5"/>
			<rect x="1446.8" y="444.6" class="st2" width="3.5" height="3.5"/>
			<rect x="1453.8" y="444.6" class="st2" width="3.5" height="3.5"/>
			<rect x="1425.8" y="451.1" class="st2" width="3.5" height="3.5"/>
			<rect x="1432.8" y="451.1" class="st2" width="3.5" height="3.5"/>
			<rect x="1439.8" y="451.1" class="st2" width="3.5" height="3.5"/>
			<rect x="1446.8" y="451.1" class="st2" width="3.5" height="3.5"/>
			<rect x="1453.8" y="451.1" class="st2" width="3.5" height="3.5"/>
			<rect x="1425.8" y="457.6" class="st2" width="3.5" height="3.5"/>
			<rect x="1439.8" y="457.6" class="st2" width="3.5" height="3.5"/>
			<rect x="1453.8" y="457.6" class="st2" width="3.5" height="3.5"/>
			<rect x="1425.8" y="464.1" class="st2" width="3.5" height="3.5"/>
			<rect x="1432.8" y="464.1" class="st2" width="3.5" height="3.5"/>
			<rect x="1453.8" y="464.1" class="st2" width="3.5" height="3.5"/>
			<rect x="1432.8" y="470.6" class="st2" width="3.5" height="3.5"/>
			<rect x="1439.8" y="470.6" class="st2" width="3.5" height="3.5"/>
			<rect x="1446.8" y="470.6" class="st2" width="3.5" height="3.5"/>
			<rect x="1453.8" y="470.6" class="st2" width="3.5" height="3.5"/>
			<rect x="1425.8" y="477.1" class="st2" width="3.5" height="3.5"/>
			<rect x="1432.8" y="477.1" class="st2" width="3.5" height="3.5"/>
			<rect x="1439.8" y="477.1" class="st2" width="3.5" height="3.5"/>
			<rect x="1446.8" y="477.1" class="st2" width="3.5" height="3.5"/>
			<rect x="1432.8" y="483.6" class="st2" width="3.5" height="3.5"/>
			<rect x="1439.8" y="483.6" class="st2" width="3.5" height="3.5"/>
			<rect x="1446.8" y="483.6" class="st2" width="3.5" height="3.5"/>
			<rect x="1453.8" y="483.6" class="st2" width="3.5" height="3.5"/>
			<rect x="1425.8" y="490.1" class="st2" width="3.5" height="3.5"/>
			<rect x="1432.8" y="490.1" class="st2" width="3.5" height="3.5"/>
			<rect x="1439.8" y="490.1" class="st2" width="3.5" height="3.5"/>
			<rect x="1446.8" y="490.1" class="st2" width="3.5" height="3.5"/>
			<rect x="1453.8" y="490.1" class="st2" width="3.5" height="3.5"/>
			<rect x="1425.8" y="496.6" class="st2" width="3.5" height="3.5"/>
			<rect x="1439.8" y="496.6" class="st2" width="3.5" height="3.5"/>
			<rect x="1453.8" y="496.6" class="st2" width="3.5" height="3.5"/>
			<rect x="1425.8" y="503.1" class="st2" width="3.5" height="3.5"/>
			<rect x="1432.8" y="503.1" class="st2" width="3.5" height="3.5"/>
			<rect x="1439.8" y="503.1" class="st2" width="3.5" height="3.5"/>
			<rect x="1446.8" y="503.1" class="st2" width="3.5" height="3.5"/>
			<rect x="1453.8" y="503.1" class="st2" width="3.5" height="3.5"/>
			<rect x="1425.8" y="509.6" class="st2" width="3.5" height="3.5"/>
			<rect x="1446.8" y="509.6" class="st2" width="3.5" height="3.5"/>
			<rect x="1453.8" y="509.6" class="st2" width="3.5" height="3.5"/>
			<rect x="1432.8" y="516.1" class="st2" width="3.5" height="3.5"/>
			<rect x="1439.8" y="516.1" class="st2" width="3.5" height="3.5"/>
			<rect x="1446.8" y="516.1" class="st2" width="3.5" height="3.5"/>
			<rect x="1432.8" y="522.6" class="st2" width="3.5" height="3.5"/>
			<rect x="1439.8" y="522.6" class="st2" width="3.5" height="3.5"/>
			<rect x="1446.8" y="522.6" class="st2" width="3.5" height="3.5"/>
			<rect x="1432.8" y="529.1" class="st2" width="3.5" height="3.5"/>
			<rect x="1439.8" y="529.1" class="st2" width="3.5" height="3.5"/>
			<rect x="1425.8" y="535.6" class="st2" width="3.5" height="3.5"/>
			<rect x="1432.8" y="535.6" class="st2" width="3.5" height="3.5"/>
			<rect x="1446.8" y="535.6" class="st2" width="3.5" height="3.5"/>
			<rect x="1453.8" y="535.6" class="st2" width="3.5" height="3.5"/>
			<rect x="1425.8" y="542.1" class="st2" width="3.5" height="3.5"/>
			<rect x="1439.8" y="542.1" class="st2" width="3.5" height="3.5"/>
			<rect x="1446.8" y="542.1" class="st2" width="3.5" height="3.5"/>
			<rect x="1453.8" y="542.1" class="st2" width="3.5" height="3.5"/>
			<rect x="1425.8" y="548.6" class="st2" width="3.5" height="3.5"/>
			<rect x="1432.8" y="548.6" class="st2" width="3.5" height="3.5"/>
			<rect x="1439.8" y="548.6" class="st2" width="3.5" height="3.5"/>
			<rect x="1446.8" y="548.6" class="st2" width="3.5" height="3.5"/>
			<rect x="1453.8" y="548.6" class="st2" width="3.5" height="3.5"/>
			<rect x="1432.8" y="555.1" class="st2" width="3.5" height="3.5"/>
			<rect x="1439.8" y="555.1" class="st2" width="3.5" height="3.5"/>
			<rect x="1453.8" y="555.1" class="st2" width="3.5" height="3.5"/>
			<rect x="1425.8" y="561.6" class="st2" width="3.5" height="3.5"/>
			<rect x="1432.8" y="561.6" class="st2" width="3.5" height="3.5"/>
			<rect x="1439.8" y="561.6" class="st2" width="3.5" height="3.5"/>
			<rect x="1446.8" y="561.6" class="st2" width="3.5" height="3.5"/>
			<rect x="1453.8" y="561.6" class="st2" width="3.5" height="3.5"/>
			<rect x="1425.8" y="568.1" class="st2" width="3.5" height="3.5"/>
			<rect x="1439.8" y="568.1" class="st2" width="3.5" height="3.5"/>
			<rect x="1453.8" y="568.1" class="st2" width="3.5" height="3.5"/>
			<rect x="1432.8" y="574.6" class="st2" width="3.5" height="3.5"/>
			<rect x="1439.8" y="574.6" class="st2" width="3.5" height="3.5"/>
			<rect x="1446.8" y="574.6" class="st2" width="3.5" height="3.5"/>
			<rect x="1453.8" y="574.6" class="st2" width="3.5" height="3.5"/>
			<rect x="1425.8" y="581.1" class="st2" width="3.5" height="3.5"/>
			<rect x="1432.8" y="581.1" class="st2" width="3.5" height="3.5"/>
			<rect x="1439.8" y="581.1" class="st2" width="3.5" height="3.5"/>
			<rect x="1453.8" y="581.1" class="st2" width="3.5" height="3.5"/>
			<rect x="1425.8" y="587.6" class="st2" width="3.5" height="3.5"/>
			<rect x="1432.8" y="587.6" class="st2" width="3.5" height="3.5"/>
			<rect x="1439.8" y="587.6" class="st2" width="3.5" height="3.5"/>
			<rect x="1446.8" y="587.6" class="st2" width="3.5" height="3.5"/>
			<rect x="1453.8" y="587.6" class="st2" width="3.5" height="3.5"/>
			<polyline class="st2" points="1395.2,388.7 1399.3,388.7 1399.3,594.7 1395.2,594.7 			"/>
			<rect x="1391.7" y="392.6" class="st2" width="3.5" height="3.5"/>
			<rect x="1377.7" y="399.1" class="st2" width="3.5" height="3.5"/>
			<rect x="1384.7" y="399.1" class="st2" width="3.5" height="3.5"/>
			<rect x="1391.7" y="399.1" class="st2" width="3.5" height="3.5"/>
			<rect x="1377.7" y="405.6" class="st2" width="3.5" height="3.5"/>
			<rect x="1391.7" y="405.6" class="st2" width="3.5" height="3.5"/>
			<rect x="1377.7" y="412.1" class="st2" width="3.5" height="3.5"/>
			<rect x="1384.7" y="412.1" class="st2" width="3.5" height="3.5"/>
			<rect x="1391.7" y="412.1" class="st2" width="3.5" height="3.5"/>
			<rect x="1377.7" y="418.6" class="st2" width="3.5" height="3.5"/>
			<rect x="1384.7" y="418.6" class="st2" width="3.5" height="3.5"/>
			<rect x="1391.7" y="418.6" class="st2" width="3.5" height="3.5"/>
			<rect x="1377.7" y="425.1" class="st2" width="3.5" height="3.5"/>
			<rect x="1377.7" y="431.6" class="st2" width="3.5" height="3.5"/>
			<rect x="1384.7" y="431.6" class="st2" width="3.5" height="3.5"/>
			<rect x="1391.7" y="431.6" class="st2" width="3.5" height="3.5"/>
			<rect x="1377.7" y="438.1" class="st2" width="3.5" height="3.5"/>
			<rect x="1384.7" y="438.1" class="st2" width="3.5" height="3.5"/>
			<rect x="1384.7" y="444.6" class="st2" width="3.5" height="3.5"/>
			<rect x="1391.7" y="444.6" class="st2" width="3.5" height="3.5"/>
			<rect x="1377.7" y="451.1" class="st2" width="3.5" height="3.5"/>
			<rect x="1384.7" y="451.1" class="st2" width="3.5" height="3.5"/>
			<rect x="1391.7" y="451.1" class="st2" width="3.5" height="3.5"/>
			<rect x="1377.7" y="457.6" class="st2" width="3.5" height="3.5"/>
			<rect x="1391.7" y="457.6" class="st2" width="3.5" height="3.5"/>
			<rect x="1377.7" y="464.1" class="st2" width="3.5" height="3.5"/>
			<rect x="1384.7" y="464.1" class="st2" width="3.5" height="3.5"/>
			<rect x="1391.7" y="464.1" class="st2" width="3.5" height="3.5"/>
			<rect x="1377.7" y="470.6" class="st2" width="3.5" height="3.5"/>
			<rect x="1391.7" y="470.6" class="st2" width="3.5" height="3.5"/>
			<rect x="1384.7" y="477.1" class="st2" width="3.5" height="3.5"/>
			<rect x="1391.7" y="477.1" class="st2" width="3.5" height="3.5"/>
			<rect x="1377.7" y="483.6" class="st2" width="3.5" height="3.5"/>
			<rect x="1384.7" y="483.6" class="st2" width="3.5" height="3.5"/>
			<rect x="1391.7" y="483.6" class="st2" width="3.5" height="3.5"/>
			<rect x="1377.7" y="490.1" class="st2" width="3.5" height="3.5"/>
			<rect x="1384.7" y="490.1" class="st2" width="3.5" height="3.5"/>
			<rect x="1384.7" y="496.6" class="st2" width="3.5" height="3.5"/>
			<rect x="1391.7" y="496.6" class="st2" width="3.5" height="3.5"/>
			<rect x="1377.7" y="503.1" class="st2" width="3.5" height="3.5"/>
			<rect x="1384.7" y="503.1" class="st2" width="3.5" height="3.5"/>
			<rect x="1391.7" y="503.1" class="st2" width="3.5" height="3.5"/>
			<rect x="1377.7" y="509.6" class="st2" width="3.5" height="3.5"/>
			<rect x="1391.7" y="509.6" class="st2" width="3.5" height="3.5"/>
			<rect x="1384.7" y="516.1" class="st2" width="3.5" height="3.5"/>
			<rect x="1391.7" y="516.1" class="st2" width="3.5" height="3.5"/>
			<rect x="1384.7" y="522.6" class="st2" width="3.5" height="3.5"/>
			<rect x="1384.7" y="529.1" class="st2" width="3.5" height="3.5"/>
			<rect x="1391.7" y="529.1" class="st2" width="3.5" height="3.5"/>
			<rect x="1377.7" y="535.6" class="st2" width="3.5" height="3.5"/>
			<rect x="1384.7" y="535.6" class="st2" width="3.5" height="3.5"/>
			<rect x="1391.7" y="535.6" class="st2" width="3.5" height="3.5"/>
			<rect x="1377.7" y="542.1" class="st2" width="3.5" height="3.5"/>
			<rect x="1391.7" y="542.1" class="st2" width="3.5" height="3.5"/>
			<rect x="1377.7" y="548.6" class="st2" width="3.5" height="3.5"/>
			<rect x="1384.7" y="548.6" class="st2" width="3.5" height="3.5"/>
			<rect x="1391.7" y="548.6" class="st2" width="3.5" height="3.5"/>
			<rect x="1377.7" y="555.1" class="st2" width="3.5" height="3.5"/>
			<rect x="1391.7" y="555.1" class="st2" width="3.5" height="3.5"/>
			<rect x="1384.7" y="561.6" class="st2" width="3.5" height="3.5"/>
			<rect x="1377.7" y="568.1" class="st2" width="3.5" height="3.5"/>
			<rect x="1384.7" y="568.1" class="st2" width="3.5" height="3.5"/>
			<rect x="1391.7" y="568.1" class="st2" width="3.5" height="3.5"/>
			<rect x="1384.7" y="574.6" class="st2" width="3.5" height="3.5"/>
			<rect x="1391.7" y="574.6" class="st2" width="3.5" height="3.5"/>
			<rect x="1377.7" y="581.1" class="st2" width="3.5" height="3.5"/>
			<rect x="1384.7" y="581.1" class="st2" width="3.5" height="3.5"/>
			<rect x="1391.7" y="581.1" class="st2" width="3.5" height="3.5"/>
			<rect x="1377.7" y="587.6" class="st2" width="3.5" height="3.5"/>
			<rect x="1384.7" y="587.6" class="st2" width="3.5" height="3.5"/>
			<polyline class="st1" points="1421.6,518.1 1427.8,518.1 1427.8,530.6 1421.6,530.6 			"/>
			<polyline class="st1" points="1461.4,518.1 1455.3,518.1 1455.3,530.6 1461.4,530.6 			"/>
			<line class="st2" x1="1404.9" y1="367.1" x2="1404.9" y2="614.6"/>
			<line class="st2" x1="1416" y1="367.1" x2="1416" y2="614.6"/>
			<polyline class="st2" points="1487.9,388.7 1483.8,388.7 1483.8,594.7 1487.9,594.7 			"/>
			
				<rect x="1501.9" y="392.6" transform="matrix(-1 -1.224647e-16 1.224647e-16 -1 3007.374 788.787)" class="st2" width="3.5" height="3.5"/>
			
				<rect x="1494.9" y="392.6" transform="matrix(-1 -1.224647e-16 1.224647e-16 -1 2993.374 788.787)" class="st2" width="3.5" height="3.5"/>
			
				<rect x="1501.9" y="399.1" transform="matrix(-1 -1.224647e-16 1.224647e-16 -1 3007.374 801.787)" class="st2" width="3.5" height="3.5"/>
			
				<rect x="1487.9" y="399.1" transform="matrix(-1 -1.224647e-16 1.224647e-16 -1 2979.374 801.787)" class="st2" width="3.5" height="3.5"/>
			
				<rect x="1501.9" y="405.6" transform="matrix(-1 -1.224647e-16 1.224647e-16 -1 3007.374 814.787)" class="st2" width="3.5" height="3.5"/>
			
				<rect x="1494.9" y="405.6" transform="matrix(-1 -1.224647e-16 1.224647e-16 -1 2993.374 814.787)" class="st2" width="3.5" height="3.5"/>
			
				<rect x="1487.9" y="405.6" transform="matrix(-1 -1.224647e-16 1.224647e-16 -1 2979.374 814.787)" class="st2" width="3.5" height="3.5"/>
			
				<rect x="1487.9" y="412.1" transform="matrix(-1 -1.224647e-16 1.224647e-16 -1 2979.374 827.787)" class="st2" width="3.5" height="3.5"/>
			
				<rect x="1501.9" y="418.6" transform="matrix(-1 -1.224647e-16 1.224647e-16 -1 3007.374 840.787)" class="st2" width="3.5" height="3.5"/>
			
				<rect x="1494.9" y="418.6" transform="matrix(-1 -1.224647e-16 1.224647e-16 -1 2993.374 840.787)" class="st2" width="3.5" height="3.5"/>
			
				<rect x="1487.9" y="418.6" transform="matrix(-1 -1.224647e-16 1.224647e-16 -1 2979.374 840.787)" class="st2" width="3.5" height="3.5"/>
			
				<rect x="1501.9" y="425.1" transform="matrix(-1 -1.224647e-16 1.224647e-16 -1 3007.374 853.787)" class="st2" width="3.5" height="3.5"/>
			
				<rect x="1487.9" y="425.1" transform="matrix(-1 -1.224647e-16 1.224647e-16 -1 2979.374 853.787)" class="st2" width="3.5" height="3.5"/>
			
				<rect x="1501.9" y="431.6" transform="matrix(-1 -1.224647e-16 1.224647e-16 -1 3007.374 866.787)" class="st2" width="3.5" height="3.5"/>
			
				<rect x="1494.9" y="431.6" transform="matrix(-1 -1.224647e-16 1.224647e-16 -1 2993.374 866.787)" class="st2" width="3.5" height="3.5"/>
			
				<rect x="1487.9" y="431.6" transform="matrix(-1 -1.224647e-16 1.224647e-16 -1 2979.374 866.787)" class="st2" width="3.5" height="3.5"/>
			
				<rect x="1501.9" y="438.1" transform="matrix(-1 -1.224647e-16 1.224647e-16 -1 3007.374 879.787)" class="st2" width="3.5" height="3.5"/>
			
				<rect x="1494.9" y="438.1" transform="matrix(-1 -1.224647e-16 1.224647e-16 -1 2993.374 879.787)" class="st2" width="3.5" height="3.5"/>
			
				<rect x="1487.9" y="438.1" transform="matrix(-1 -1.224647e-16 1.224647e-16 -1 2979.374 879.787)" class="st2" width="3.5" height="3.5"/>
			
				<rect x="1501.9" y="444.6" transform="matrix(-1 -1.224647e-16 1.224647e-16 -1 3007.374 892.787)" class="st2" width="3.5" height="3.5"/>
			
				<rect x="1494.9" y="444.6" transform="matrix(-1 -1.224647e-16 1.224647e-16 -1 2993.374 892.787)" class="st2" width="3.5" height="3.5"/>
			
				<rect x="1501.9" y="451.1" transform="matrix(-1 -1.224647e-16 1.224647e-16 -1 3007.374 905.787)" class="st2" width="3.5" height="3.5"/>
			
				<rect x="1487.9" y="451.1" transform="matrix(-1 -1.224647e-16 1.224647e-16 -1 2979.374 905.787)" class="st2" width="3.5" height="3.5"/>
			
				<rect x="1501.9" y="457.6" transform="matrix(-1 -1.224647e-16 1.224647e-16 -1 3007.374 918.787)" class="st2" width="3.5" height="3.5"/>
			
				<rect x="1494.9" y="457.6" transform="matrix(-1 -1.224647e-16 1.224647e-16 -1 2993.374 918.787)" class="st2" width="3.5" height="3.5"/>
			
				<rect x="1487.9" y="457.6" transform="matrix(-1 -1.224647e-16 1.224647e-16 -1 2979.374 918.787)" class="st2" width="3.5" height="3.5"/>
			
				<rect x="1501.9" y="464.1" transform="matrix(-1 -1.224647e-16 1.224647e-16 -1 3007.374 931.787)" class="st2" width="3.5" height="3.5"/>
			
				<rect x="1494.9" y="464.1" transform="matrix(-1 -1.224647e-16 1.224647e-16 -1 2993.374 931.787)" class="st2" width="3.5" height="3.5"/>
			
				<rect x="1487.9" y="464.1" transform="matrix(-1 -1.224647e-16 1.224647e-16 -1 2979.374 931.787)" class="st2" width="3.5" height="3.5"/>
			
				<rect x="1501.9" y="470.6" transform="matrix(-1 -1.224647e-16 1.224647e-16 -1 3007.374 944.787)" class="st2" width="3.5" height="3.5"/>
			
				<rect x="1487.9" y="470.6" transform="matrix(-1 -1.224647e-16 1.224647e-16 -1 2979.374 944.787)" class="st2" width="3.5" height="3.5"/>
			
				<rect x="1501.9" y="477.1" transform="matrix(-1 -1.224647e-16 1.224647e-16 -1 3007.374 957.787)" class="st2" width="3.5" height="3.5"/>
			
				<rect x="1494.9" y="477.1" transform="matrix(-1 -1.224647e-16 1.224647e-16 -1 2993.374 957.787)" class="st2" width="3.5" height="3.5"/>
			
				<rect x="1487.9" y="477.1" transform="matrix(-1 -1.224647e-16 1.224647e-16 -1 2979.374 957.787)" class="st2" width="3.5" height="3.5"/>
			
				<rect x="1494.9" y="483.6" transform="matrix(-1 -1.224647e-16 1.224647e-16 -1 2993.374 970.787)" class="st2" width="3.5" height="3.5"/>
			
				<rect x="1487.9" y="483.6" transform="matrix(-1 -1.224647e-16 1.224647e-16 -1 2979.374 970.787)" class="st2" width="3.5" height="3.5"/>
			
				<rect x="1501.9" y="490.1" transform="matrix(-1 -1.224647e-16 1.224647e-16 -1 3007.374 983.787)" class="st2" width="3.5" height="3.5"/>
			
				<rect x="1494.9" y="490.1" transform="matrix(-1 -1.224647e-16 1.224647e-16 -1 2993.374 983.787)" class="st2" width="3.5" height="3.5"/>
			
				<rect x="1487.9" y="490.1" transform="matrix(-1 -1.224647e-16 1.224647e-16 -1 2979.374 983.787)" class="st2" width="3.5" height="3.5"/>
			
				<rect x="1501.9" y="496.6" transform="matrix(-1 -1.224647e-16 1.224647e-16 -1 3007.374 996.787)" class="st2" width="3.5" height="3.5"/>
			
				<rect x="1494.9" y="496.6" transform="matrix(-1 -1.224647e-16 1.224647e-16 -1 2993.374 996.787)" class="st2" width="3.5" height="3.5"/>
			
				<rect x="1501.9" y="503.1" transform="matrix(-1 -1.224647e-16 1.224647e-16 -1 3007.374 1009.787)" class="st2" width="3.5" height="3.5"/>
			
				<rect x="1494.9" y="503.1" transform="matrix(-1 -1.224647e-16 1.224647e-16 -1 2993.374 1009.787)" class="st2" width="3.5" height="3.5"/>
			
				<rect x="1487.9" y="503.1" transform="matrix(-1 -1.224647e-16 1.224647e-16 -1 2979.374 1009.787)" class="st2" width="3.5" height="3.5"/>
			
				<rect x="1501.9" y="509.6" transform="matrix(-1 -1.224647e-16 1.224647e-16 -1 3007.374 1022.787)" class="st2" width="3.5" height="3.5"/>
			
				<rect x="1494.9" y="509.6" transform="matrix(-1 -1.224647e-16 1.224647e-16 -1 2993.374 1022.787)" class="st2" width="3.5" height="3.5"/>
			
				<rect x="1487.9" y="509.6" transform="matrix(-1 -1.224647e-16 1.224647e-16 -1 2979.374 1022.787)" class="st2" width="3.5" height="3.5"/>
			
				<rect x="1494.9" y="516.1" transform="matrix(-1 -1.224647e-16 1.224647e-16 -1 2993.374 1035.787)" class="st2" width="3.5" height="3.5"/>
			
				<rect x="1487.9" y="516.1" transform="matrix(-1 -1.224647e-16 1.224647e-16 -1 2979.374 1035.787)" class="st2" width="3.5" height="3.5"/>
			
				<rect x="1487.9" y="522.6" transform="matrix(-1 -1.224647e-16 1.224647e-16 -1 2979.374 1048.787)" class="st2" width="3.5" height="3.5"/>
			
				<rect x="1494.9" y="529.1" transform="matrix(-1 -1.224647e-16 1.224647e-16 -1 2993.374 1061.787)" class="st2" width="3.5" height="3.5"/>
			
				<rect x="1487.9" y="529.1" transform="matrix(-1 -1.224647e-16 1.224647e-16 -1 2979.374 1061.787)" class="st2" width="3.5" height="3.5"/>
			
				<rect x="1501.9" y="535.6" transform="matrix(-1 -1.224647e-16 1.224647e-16 -1 3007.374 1074.787)" class="st2" width="3.5" height="3.5"/>
			
				<rect x="1494.9" y="535.6" transform="matrix(-1 -1.224647e-16 1.224647e-16 -1 2993.374 1074.787)" class="st2" width="3.5" height="3.5"/>
			
				<rect x="1494.9" y="542.1" transform="matrix(-1 -1.224647e-16 1.224647e-16 -1 2993.374 1087.787)" class="st2" width="3.5" height="3.5"/>
			
				<rect x="1487.9" y="542.1" transform="matrix(-1 -1.224647e-16 1.224647e-16 -1 2979.374 1087.787)" class="st2" width="3.5" height="3.5"/>
			
				<rect x="1501.9" y="548.6" transform="matrix(-1 -1.224647e-16 1.224647e-16 -1 3007.374 1100.787)" class="st2" width="3.5" height="3.5"/>
			
				<rect x="1487.9" y="548.6" transform="matrix(-1 -1.224647e-16 1.224647e-16 -1 2979.374 1100.787)" class="st2" width="3.5" height="3.5"/>
			
				<rect x="1501.9" y="555.1" transform="matrix(-1 -1.224647e-16 1.224647e-16 -1 3007.374 1113.787)" class="st2" width="3.5" height="3.5"/>
			
				<rect x="1494.9" y="555.1" transform="matrix(-1 -1.224647e-16 1.224647e-16 -1 2993.374 1113.787)" class="st2" width="3.5" height="3.5"/>
			
				<rect x="1487.9" y="555.1" transform="matrix(-1 -1.224647e-16 1.224647e-16 -1 2979.374 1113.787)" class="st2" width="3.5" height="3.5"/>
			
				<rect x="1501.9" y="561.6" transform="matrix(-1 -1.224647e-16 1.224647e-16 -1 3007.374 1126.787)" class="st2" width="3.5" height="3.5"/>
			
				<rect x="1494.9" y="561.6" transform="matrix(-1 -1.224647e-16 1.224647e-16 -1 2993.374 1126.787)" class="st2" width="3.5" height="3.5"/>
			
				<rect x="1494.9" y="568.1" transform="matrix(-1 -1.224647e-16 1.224647e-16 -1 2993.374 1139.787)" class="st2" width="3.5" height="3.5"/>
			
				<rect x="1487.9" y="568.1" transform="matrix(-1 -1.224647e-16 1.224647e-16 -1 2979.374 1139.787)" class="st2" width="3.5" height="3.5"/>
			
				<rect x="1501.9" y="574.6" transform="matrix(-1 -1.224647e-16 1.224647e-16 -1 3007.374 1152.787)" class="st2" width="3.5" height="3.5"/>
			
				<rect x="1494.9" y="574.6" transform="matrix(-1 -1.224647e-16 1.224647e-16 -1 2993.374 1152.787)" class="st2" width="3.5" height="3.5"/>
			
				<rect x="1487.9" y="574.6" transform="matrix(-1 -1.224647e-16 1.224647e-16 -1 2979.374 1152.787)" class="st2" width="3.5" height="3.5"/>
			
				<rect x="1494.9" y="581.1" transform="matrix(-1 -1.224647e-16 1.224647e-16 -1 2993.374 1165.787)" class="st2" width="3.5" height="3.5"/>
			
				<rect x="1487.9" y="581.1" transform="matrix(-1 -1.224647e-16 1.224647e-16 -1 2979.374 1165.787)" class="st2" width="3.5" height="3.5"/>
			
				<rect x="1501.9" y="587.6" transform="matrix(-1 -1.224647e-16 1.224647e-16 -1 3007.374 1178.787)" class="st2" width="3.5" height="3.5"/>
			
				<rect x="1487.9" y="587.6" transform="matrix(-1 -1.224647e-16 1.224647e-16 -1 2979.374 1178.787)" class="st2" width="3.5" height="3.5"/>
			<line class="st2" x1="1478.2" y1="367.1" x2="1478.2" y2="614.6"/>
			<line class="st2" x1="1467.1" y1="367.1" x2="1467.1" y2="614.6"/>
			<path class="st1" d="M1510.4,518.1V388.7h-22.5v-21.7h-34.1c0,0,0,21.7,0,21.7h-24.5h0v-21.7h-34.1v21.7h-22.5v129.4h7v12.5l-7,0
				v64.1h22.5c0,0,0,19.9,0,19.9h34.1c0,0,0-19.9,0-19.9h24.5c0,0,0,19.9,0,19.9h34.1v-19.9c0,0,22.5,0,22.5,0v-64.1l-7,0v-12.5
				H1510.4z"/>
		</g>
		<g>
			<path class="st0" d="M770.7,509.9c-1.7-9.8,1.8-20,11.5-57.3c-4.2,6.7-9.1,15.3-13.6,23.8l-9,0c1.1-7.3,2.7-16.4,4.9-28.5
				c-5.2,9.8-9.4,19.9-12.7,28.5l0,0h-7.6l0,0c0.7-16.9,1.6-31.5,1.6-31.5s-4,14.3-8,31.5h-5.7h-5.7c-4-17.2-8-31.5-8-31.5
				s0.9,14.6,1.6,31.5l0,0h-7.6l0,0c-3.3-8.7-7.6-18.7-12.7-28.5c2.2,12.1,3.8,21.2,4.9,28.5l-9,0c-4.5-8.4-9.4-17.1-13.6-23.8
				c9.8,37.2,13.3,47.4,11.5,57.3c-6.6,37.1-116.8,104.8-116.8,104.8h155.5h155.5C887.6,614.6,777.3,547,770.7,509.9z"/>
			<path class="st2" d="M744.2,476.4c-0.5,11.8-0.9,24.7-0.9,34.5c0,24.8,35.8,103.8,35.8,103.8s-37.8-54.8-47-90.2"/>
			<path class="st2" d="M732.4,502.9c1.4-8.6,3.4-17.9,5.4-26.5"/>
			<path class="st2" d="M759.7,476.4c-2.6,16.9-2.8,23.7-2.4,33.2c1.2,30.5,85.5,105,85.5,105s-76.2-53.8-97.3-89.5"/>
			<path class="st2" d="M743.4,501.6c0,0,2.9-10.7,8.4-25.2"/>
			<path class="st2" d="M887.6,614.6c0,0-91-50.2-110.2-67.6"/>
			<path class="st2" d="M757.1,501.9c1.8-6.1,6.4-15.7,11.6-25.5"/>
			<line class="st2" x1="732.1" y1="480" x2="736.9" y2="480"/>
			<line class="st2" x1="744.1" y1="480" x2="750.5" y2="480"/>
			<line class="st2" x1="759.1" y1="480" x2="766.8" y2="480"/>
			<line class="st2" x1="732.1" y1="476.4" x2="732.1" y2="401.2"/>
			<line class="st2" x1="714.8" y1="423.1" x2="749.3" y2="423.1"/>
			<line class="st2" x1="726.9" y1="417.9" x2="737.2" y2="428.2"/>
			<line class="st2" x1="737.2" y1="417.9" x2="726.9" y2="428.2"/>
			<line class="st2" x1="732.1" y1="533.6" x2="734.6" y2="532.7"/>
			<line class="st2" x1="749.1" y1="538.3" x2="753.6" y2="536.7"/>
			<line class="st2" x1="732.1" y1="544.5" x2="738.3" y2="542.3"/>
			<line class="st2" x1="752.3" y1="548" x2="760.7" y2="545"/>
			<line class="st2" x1="732.1" y1="555.5" x2="742.4" y2="551.7"/>
			<line class="st2" x1="755.7" y1="557.7" x2="768.4" y2="553.1"/>
			<line class="st2" x1="732.1" y1="566.4" x2="747" y2="560.9"/>
			<line class="st2" x1="786" y1="557.5" x2="789.5" y2="556.2"/>
			<line class="st2" x1="759.3" y1="567.3" x2="776.6" y2="561"/>
			<line class="st2" x1="732.1" y1="577.3" x2="751.8" y2="570.1"/>
			<line class="st2" x1="793.3" y1="565.8" x2="800.1" y2="563.3"/>
			<line class="st2" x1="763.1" y1="576.8" x2="785.1" y2="568.8"/>
			<line class="st2" x1="732.1" y1="588.2" x2="756.9" y2="579.1"/>
			<line class="st2" x1="800.8" y1="573.9" x2="811" y2="570.2"/>
			<line class="st2" x1="766.9" y1="586.3" x2="793.9" y2="576.5"/>
			<line class="st2" x1="732.1" y1="599.1" x2="762.2" y2="588.1"/>
			<line class="st2" x1="808.6" y1="582" x2="822.2" y2="577"/>
			<line class="st2" x1="770.9" y1="595.8" x2="803" y2="584.1"/>
			<line class="st2" x1="732.1" y1="610" x2="767.6" y2="597"/>
			<line class="st2" x1="816.6" y1="590" x2="833.5" y2="583.8"/>
			<line class="st2" x1="774.9" y1="605.2" x2="812.2" y2="591.6"/>
			<line class="st2" x1="749.3" y1="614.6" x2="773.2" y2="605.9"/>
			<line class="st2" x1="824.7" y1="597.9" x2="845" y2="590.5"/>
			<line class="st2" x1="779.1" y1="614.6" x2="821.7" y2="599"/>
			<line class="st2" x1="833.1" y1="605.8" x2="856.6" y2="597.1"/>
			<line class="st2" x1="808.8" y1="614.6" x2="831.5" y2="606.4"/>
			<line class="st2" x1="841.6" y1="613.6" x2="868.2" y2="603.8"/>
			<line class="st2" x1="868.4" y1="614.6" x2="880" y2="610.4"/>
			<path class="st2" d="M719.9,476.4c0.5,11.8,0.9,24.7,0.9,34.5c0,24.8-35.8,103.8-35.8,103.8s37.8-54.8,47-90.2"/>
			<path class="st2" d="M731.7,502.9c-1.4-8.6-3.4-17.9-5.4-26.5"/>
			<path class="st2" d="M704.4,476.4c2.6,16.9,2.8,23.7,2.4,33.2c-1.2,30.5-85.5,105-85.5,105s76.3-53.8,97.3-89.5"/>
			<path class="st2" d="M720.7,501.6c0,0-2.9-10.7-8.4-25.2"/>
			<path class="st2" d="M576.6,614.6c0,0,91-50.2,110.2-67.6"/>
			<path class="st2" d="M707,501.9c-1.8-6.1-6.4-15.7-11.6-25.5"/>
			<line class="st2" x1="732.1" y1="480" x2="727.2" y2="480"/>
			<line class="st2" x1="720" y1="480" x2="713.6" y2="480"/>
			<line class="st2" x1="705" y1="480" x2="697.3" y2="480"/>
			<line class="st2" x1="732.1" y1="533.6" x2="729.5" y2="532.7"/>
			<line class="st2" x1="715" y1="538.3" x2="710.5" y2="536.7"/>
			<line class="st2" x1="732.1" y1="544.5" x2="725.8" y2="542.3"/>
			<line class="st2" x1="711.8" y1="548" x2="703.4" y2="545"/>
			<line class="st2" x1="732.1" y1="555.5" x2="721.7" y2="551.7"/>
			<line class="st2" x1="708.4" y1="557.7" x2="695.7" y2="553.1"/>
			<line class="st2" x1="732.1" y1="566.4" x2="717.1" y2="560.9"/>
			<line class="st2" x1="678.1" y1="557.5" x2="674.6" y2="556.2"/>
			<line class="st2" x1="704.8" y1="567.3" x2="687.5" y2="561"/>
			<line class="st2" x1="732.1" y1="577.3" x2="712.3" y2="570.1"/>
			<line class="st2" x1="670.8" y1="565.8" x2="664" y2="563.3"/>
			<line class="st2" x1="701" y1="576.8" x2="679" y2="568.8"/>
			<line class="st2" x1="732.1" y1="588.2" x2="707.2" y2="579.1"/>
			<line class="st2" x1="663.3" y1="573.9" x2="653.1" y2="570.2"/>
			<line class="st2" x1="697.2" y1="586.3" x2="670.2" y2="576.5"/>
			<line class="st2" x1="732.1" y1="599.1" x2="701.9" y2="588.1"/>
			<line class="st2" x1="655.5" y1="582" x2="641.9" y2="577"/>
			<line class="st2" x1="693.2" y1="595.8" x2="661.1" y2="584.1"/>
			<line class="st2" x1="732.1" y1="610" x2="696.5" y2="597"/>
			<line class="st2" x1="647.5" y1="590" x2="630.6" y2="583.8"/>
			<line class="st2" x1="689.2" y1="605.2" x2="651.9" y2="591.6"/>
			<line class="st2" x1="714.8" y1="614.6" x2="690.9" y2="605.9"/>
			<line class="st2" x1="639.4" y1="597.9" x2="619.1" y2="590.5"/>
			<line class="st2" x1="685" y1="614.6" x2="642.4" y2="599"/>
			<line class="st2" x1="631" y1="605.8" x2="607.5" y2="597.1"/>
			<line class="st2" x1="655.3" y1="614.6" x2="632.6" y2="606.4"/>
			<line class="st2" x1="622.5" y1="613.6" x2="595.9" y2="603.8"/>
			<line class="st2" x1="595.7" y1="614.6" x2="584.2" y2="610.4"/>
			<path class="st1" d="M770.7,509.9c-1.7-9.8,1.8-20,11.5-57.3c-4.2,6.7-9.1,15.3-13.6,23.8l-9,0c1.1-7.3,2.7-16.4,4.9-28.5
				c-5.2,9.8-9.4,19.9-12.7,28.5l0,0h-7.6l0,0c0.7-16.9,1.6-31.5,1.6-31.5s-4,14.3-8,31.5h-5.7h-5.7c-4-17.2-8-31.5-8-31.5
				s0.9,14.6,1.6,31.5l0,0h-7.6l0,0c-3.3-8.7-7.6-18.7-12.7-28.5c2.2,12.1,3.8,21.2,4.9,28.5l-9,0c-4.5-8.4-9.4-17.1-13.6-23.8
				c9.8,37.2,13.3,47.4,11.5,57.3c-6.6,37.1-116.8,104.8-116.8,104.8h155.5h155.5C887.6,614.6,777.3,547,770.7,509.9z"/>
		</g>
		<g>
			<polygon class="st0" points="1328.3,530.3 1323.5,530.3 1318.2,614.6 1325.9,614.6 1333.6,614.6 			"/>
			<circle class="st0" cx="1325.9" cy="426.4" r="2.9"/>
			<circle class="st0" cx="1325.9" cy="526.2" r="4.8"/>
			<g>
				<polyline class="st0" points="1331.9,465 1337.9,440.5 1328.5,433.3 1325.9,433.3 1323.2,433.3 1313.9,440.5 1319.9,465 				"/>
			</g>
			<path class="st1" d="M1318.2,473.3c-0.2-3.4,2.5-3.9,4.2-3.2c3.4,1.3,3.5,6.7,3.5,6.7v44.7"/>
			<polyline class="st1" points="1325.9,433.3 1323.2,433.3 1313.9,440.5 1319.9,465 1325.9,465 			"/>
			<polyline class="st1" points="1325.9,433.3 1328.5,433.3 1337.9,440.5 1331.9,465 1325.9,465 			"/>
			<path class="st1" d="M1333.5,473.3c0.2-3.4-2.5-3.9-4.2-3.2c-3.4,1.3-3.5,6.7-3.5,6.7v44.7"/>
			<circle class="st1" cx="1325.9" cy="426.4" r="2.9"/>
			<line class="st1" x1="1325.9" y1="423.5" x2="1325.9" y2="418.6"/>
			<circle class="st1" cx="1325.9" cy="526.2" r="4.8"/>
			<polyline class="st1" points="1323.5,530.3 1318.2,614.6 1325.9,614.6 			"/>
			<polyline class="st1" points="1328.3,530.3 1333.6,614.6 1325.9,614.6 			"/>
			<line class="st2" x1="1313.9" y1="440.5" x2="1337.9" y2="440.5"/>
			<polyline class="st2" points="1323,465 1321.1,440.5 1325.9,433.3 			"/>
			<polyline class="st2" points="1328.8,465 1330.6,440.5 1325.9,433.3 			"/>
			<line class="st2" x1="1331" y1="573.7" x2="1320.8" y2="573.7"/>
			<line class="st2" x1="1320.6" y1="575.8" x2="1331.2" y2="575.8"/>
			<line class="st2" x1="1325.9" y1="569.5" x2="1325.9" y2="551.4"/>
			<line class="st2" x1="1318.5" y1="610.1" x2="1333.3" y2="610.1"/>
			<line class="st2" x1="1324" y1="581.4" x2="1322.8" y2="605.6"/>
			<line class="st2" x1="1327.8" y1="581.4" x2="1329" y2="605.6"/>
		</g>
		<g>
			<path class="st0" d="M1421.3,584.4c23.5,0,51.8-34.7,51.8-34.7h-103.7h-103.7c0,0,28.3,34.7,51.8,34.7h-106.4
				c0,0,0-261.1,0-261.1h-42.4v125.3l-14.6,0V323.4h-42.4c0,0,0,261.1,0,261.1h-16.3c-37.7-32.7-61.3-34.7-75-34.7
				c-13.7,0-37.3,2-75,34.7h-65.7l39.5,30.2h594.8v-22.2h1.2l13.5-8C1528.8,584.4,1421.3,584.4,1421.3,584.4z M1154.2,584.4
				c0,0,0-100.5,0-100.5h14.6l0,100.5H1154.2z"/>
			<polyline class="st2" points="1124.5,592.4 890,592.4 919.3,614.6 923,614.6 923,600.6 917.8,600.6 917.8,613.5 			"/>
			<line class="st2" x1="1095.5" y1="584.4" x2="945.5" y2="584.4"/>
			<path class="st2" d="M1154.2,584.4"/>
			<line class="st2" x1="1211.2" y1="584.4" x2="1168.8" y2="584.4"/>
			<line class="st2" x1="1148.8" y1="592.4" x2="1514.1" y2="592.4"/>
			<rect x="1124.5" y="584.4" class="st2" width="24.3" height="30.2"/>
			<rect x="1148.8" y="603.5" class="st2" width="24.3" height="11.1"/>
			<rect x="1119.3" y="592.4" class="st2" width="5.2" height="14"/>
			<rect x="1119.3" y="606.4" class="st2" width="5.2" height="8.2"/>
			
				<rect x="1114.1" y="600.6" transform="matrix(-1 -1.224647e-16 1.224647e-16 -1 2233.438 1215.287)" class="st2" width="5.2" height="14"/>
			
				<rect x="1114.1" y="592.4" transform="matrix(-1 -1.224647e-16 1.224647e-16 -1 2233.438 1193.0754)" class="st2" width="5.2" height="8.2"/>
			<rect x="1178.3" y="592.4" class="st2" width="5.2" height="14"/>
			<rect x="1178.3" y="606.4" class="st2" width="5.2" height="8.2"/>
			
				<rect x="1173.1" y="600.6" transform="matrix(-1 -1.224647e-16 1.224647e-16 -1 2351.4392 1215.287)" class="st2" width="5.2" height="14"/>
			
				<rect x="1173.1" y="592.4" transform="matrix(-1 -1.224647e-16 1.224647e-16 -1 2351.4392 1193.0754)" class="st2" width="5.2" height="8.2"/>
			<rect x="1188.6" y="592.4" class="st2" width="5.2" height="14"/>
			<rect x="1188.6" y="606.4" class="st2" width="5.2" height="8.2"/>
			
				<rect x="1183.5" y="600.6" transform="matrix(-1 -1.224647e-16 1.224647e-16 -1 2372.106 1215.287)" class="st2" width="5.2" height="14"/>
			
				<rect x="1183.5" y="592.4" transform="matrix(-1 -1.224647e-16 1.224647e-16 -1 2372.106 1193.0754)" class="st2" width="5.2" height="8.2"/>
			<rect x="1199" y="592.4" class="st2" width="5.2" height="14"/>
			<rect x="1199" y="606.4" class="st2" width="5.2" height="8.2"/>
			
				<rect x="1193.8" y="600.6" transform="matrix(-1 -1.224647e-16 1.224647e-16 -1 2392.7727 1215.287)" class="st2" width="5.2" height="14"/>
			
				<rect x="1193.8" y="592.4" transform="matrix(-1 -1.224647e-16 1.224647e-16 -1 2392.7727 1193.0754)" class="st2" width="5.2" height="8.2"/>
			<rect x="1209.3" y="592.4" class="st2" width="5.2" height="14"/>
			<rect x="1209.3" y="606.4" class="st2" width="5.2" height="8.2"/>
			
				<rect x="1204.1" y="600.6" transform="matrix(-1 -1.224647e-16 1.224647e-16 -1 2413.4392 1215.287)" class="st2" width="5.2" height="14"/>
			
				<rect x="1204.1" y="592.4" transform="matrix(-1 -1.224647e-16 1.224647e-16 -1 2413.4392 1193.0754)" class="st2" width="5.2" height="8.2"/>
			<rect x="1219.6" y="592.4" class="st2" width="5.2" height="14"/>
			<rect x="1219.6" y="606.4" class="st2" width="5.2" height="8.2"/>
			
				<rect x="1214.5" y="600.6" transform="matrix(-1 -1.224647e-16 1.224647e-16 -1 2434.106 1215.287)" class="st2" width="5.2" height="14"/>
			
				<rect x="1214.5" y="592.4" transform="matrix(-1 -1.224647e-16 1.224647e-16 -1 2434.106 1193.0754)" class="st2" width="5.2" height="8.2"/>
			<rect x="1230" y="592.4" class="st2" width="5.2" height="14"/>
			<rect x="1230" y="606.4" class="st2" width="5.2" height="8.2"/>
			
				<rect x="1224.8" y="600.6" transform="matrix(-1 -1.224647e-16 1.224647e-16 -1 2454.7727 1215.287)" class="st2" width="5.2" height="14"/>
			
				<rect x="1224.8" y="592.4" transform="matrix(-1 -1.224647e-16 1.224647e-16 -1 2454.7727 1193.0754)" class="st2" width="5.2" height="8.2"/>
			<rect x="1240.3" y="592.4" class="st2" width="5.2" height="14"/>
			<rect x="1240.3" y="606.4" class="st2" width="5.2" height="8.2"/>
			
				<rect x="1235.1" y="600.6" transform="matrix(-1 -1.224647e-16 1.224647e-16 -1 2475.4392 1215.287)" class="st2" width="5.2" height="14"/>
			
				<rect x="1235.1" y="592.4" transform="matrix(-1 -1.224647e-16 1.224647e-16 -1 2475.4392 1193.0754)" class="st2" width="5.2" height="8.2"/>
			<rect x="1250.6" y="592.4" class="st2" width="5.2" height="14"/>
			<rect x="1250.6" y="606.4" class="st2" width="5.2" height="8.2"/>
			
				<rect x="1245.5" y="600.6" transform="matrix(-1 -1.224647e-16 1.224647e-16 -1 2496.106 1215.287)" class="st2" width="5.2" height="14"/>
			
				<rect x="1245.5" y="592.4" transform="matrix(-1 -1.224647e-16 1.224647e-16 -1 2496.106 1193.0754)" class="st2" width="5.2" height="8.2"/>
			<rect x="1261" y="592.4" class="st2" width="5.2" height="14"/>
			<rect x="1261" y="606.4" class="st2" width="5.2" height="8.2"/>
			
				<rect x="1255.8" y="600.6" transform="matrix(-1 -1.224647e-16 1.224647e-16 -1 2516.7727 1215.287)" class="st2" width="5.2" height="14"/>
			
				<rect x="1255.8" y="592.4" transform="matrix(-1 -1.224647e-16 1.224647e-16 -1 2516.7727 1193.0754)" class="st2" width="5.2" height="8.2"/>
			<rect x="1271.3" y="592.4" class="st2" width="5.2" height="14"/>
			<rect x="1271.3" y="606.4" class="st2" width="5.2" height="8.2"/>
			
				<rect x="1266.1" y="600.6" transform="matrix(-1 -1.224647e-16 1.224647e-16 -1 2537.4392 1215.287)" class="st2" width="5.2" height="14"/>
			
				<rect x="1266.1" y="592.4" transform="matrix(-1 -1.224647e-16 1.224647e-16 -1 2537.4392 1193.0754)" class="st2" width="5.2" height="8.2"/>
			<rect x="1281.6" y="592.4" class="st2" width="5.2" height="14"/>
			<rect x="1281.6" y="606.4" class="st2" width="5.2" height="8.2"/>
			
				<rect x="1276.5" y="600.6" transform="matrix(-1 -1.224647e-16 1.224647e-16 -1 2558.106 1215.287)" class="st2" width="5.2" height="14"/>
			
				<rect x="1276.5" y="592.4" transform="matrix(-1 -1.224647e-16 1.224647e-16 -1 2558.106 1193.0754)" class="st2" width="5.2" height="8.2"/>
			<rect x="1292" y="592.4" class="st2" width="5.2" height="14"/>
			<rect x="1292" y="606.4" class="st2" width="5.2" height="8.2"/>
			
				<rect x="1286.8" y="600.6" transform="matrix(-1 -1.224647e-16 1.224647e-16 -1 2578.7727 1215.287)" class="st2" width="5.2" height="14"/>
			
				<rect x="1286.8" y="592.4" transform="matrix(-1 -1.224647e-16 1.224647e-16 -1 2578.7727 1193.0754)" class="st2" width="5.2" height="8.2"/>
			<rect x="1302.3" y="592.4" class="st2" width="5.2" height="14"/>
			<rect x="1302.3" y="606.4" class="st2" width="5.2" height="8.2"/>
			
				<rect x="1297.1" y="600.6" transform="matrix(-1 -1.224647e-16 1.224647e-16 -1 2599.4392 1215.287)" class="st2" width="5.2" height="14"/>
			
				<rect x="1297.1" y="592.4" transform="matrix(-1 -1.224647e-16 1.224647e-16 -1 2599.4392 1193.0754)" class="st2" width="5.2" height="8.2"/>
			<rect x="1312.6" y="592.4" class="st2" width="5.2" height="14"/>
			<rect x="1312.6" y="606.4" class="st2" width="5.2" height="8.2"/>
			
				<rect x="1307.5" y="600.6" transform="matrix(-1 -1.224647e-16 1.224647e-16 -1 2620.106 1215.287)" class="st2" width="5.2" height="14"/>
			
				<rect x="1307.5" y="592.4" transform="matrix(-1 -1.224647e-16 1.224647e-16 -1 2620.106 1193.0754)" class="st2" width="5.2" height="8.2"/>
			<rect x="1323" y="592.4" class="st2" width="5.2" height="14"/>
			<rect x="1323" y="606.4" class="st2" width="5.2" height="8.2"/>
			
				<rect x="1317.8" y="600.6" transform="matrix(-1 -1.224647e-16 1.224647e-16 -1 2640.7727 1215.287)" class="st2" width="5.2" height="14"/>
			
				<rect x="1317.8" y="592.4" transform="matrix(-1 -1.224647e-16 1.224647e-16 -1 2640.7727 1193.0754)" class="st2" width="5.2" height="8.2"/>
			<rect x="1333.3" y="592.4" class="st2" width="5.2" height="14"/>
			<rect x="1333.3" y="606.4" class="st2" width="5.2" height="8.2"/>
			
				<rect x="1328.1" y="600.6" transform="matrix(-1 -1.224647e-16 1.224647e-16 -1 2661.4392 1215.287)" class="st2" width="5.2" height="14"/>
			
				<rect x="1328.1" y="592.4" transform="matrix(-1 -1.224647e-16 1.224647e-16 -1 2661.4392 1193.0754)" class="st2" width="5.2" height="8.2"/>
			<rect x="1343.6" y="592.4" class="st2" width="5.2" height="14"/>
			<rect x="1343.6" y="606.4" class="st2" width="5.2" height="8.2"/>
			
				<rect x="1338.5" y="600.6" transform="matrix(-1 -1.224647e-16 1.224647e-16 -1 2682.106 1215.287)" class="st2" width="5.2" height="14"/>
			
				<rect x="1338.5" y="592.4" transform="matrix(-1 -1.224647e-16 1.224647e-16 -1 2682.106 1193.0754)" class="st2" width="5.2" height="8.2"/>
			<rect x="1354" y="592.4" class="st2" width="5.2" height="14"/>
			<rect x="1354" y="606.4" class="st2" width="5.2" height="8.2"/>
			
				<rect x="1348.8" y="600.6" transform="matrix(-1 -1.224647e-16 1.224647e-16 -1 2702.7727 1215.287)" class="st2" width="5.2" height="14"/>
			
				<rect x="1348.8" y="592.4" transform="matrix(-1 -1.224647e-16 1.224647e-16 -1 2702.7727 1193.0754)" class="st2" width="5.2" height="8.2"/>
			<rect x="1364.3" y="592.4" class="st2" width="5.2" height="14"/>
			<rect x="1364.3" y="606.4" class="st2" width="5.2" height="8.2"/>
			
				<rect x="1359.1" y="600.6" transform="matrix(-1 -1.224647e-16 1.224647e-16 -1 2723.4392 1215.287)" class="st2" width="5.2" height="14"/>
			
				<rect x="1359.1" y="592.4" transform="matrix(-1 -1.224647e-16 1.224647e-16 -1 2723.4392 1193.0754)" class="st2" width="5.2" height="8.2"/>
			<rect x="1374.6" y="592.4" class="st2" width="5.2" height="14"/>
			<rect x="1374.6" y="606.4" class="st2" width="5.2" height="8.2"/>
			
				<rect x="1369.5" y="600.6" transform="matrix(-1 -1.224647e-16 1.224647e-16 -1 2744.106 1215.287)" class="st2" width="5.2" height="14"/>
			
				<rect x="1369.5" y="592.4" transform="matrix(-1 -1.224647e-16 1.224647e-16 -1 2744.106 1193.0754)" class="st2" width="5.2" height="8.2"/>
			<rect x="1385" y="592.4" class="st2" width="5.2" height="14"/>
			<rect x="1385" y="606.4" class="st2" width="5.2" height="8.2"/>
			
				<rect x="1379.8" y="600.6" transform="matrix(-1 -1.224647e-16 1.224647e-16 -1 2764.7727 1215.287)" class="st2" width="5.2" height="14"/>
			
				<rect x="1379.8" y="592.4" transform="matrix(-1 -1.224647e-16 1.224647e-16 -1 2764.7727 1193.0754)" class="st2" width="5.2" height="8.2"/>
			<rect x="1395.3" y="592.4" class="st2" width="5.2" height="14"/>
			<rect x="1395.3" y="606.4" class="st2" width="5.2" height="8.2"/>
			
				<rect x="1390.1" y="600.6" transform="matrix(-1 -1.224647e-16 1.224647e-16 -1 2785.4392 1215.287)" class="st2" width="5.2" height="14"/>
			
				<rect x="1390.1" y="592.4" transform="matrix(-1 -1.224647e-16 1.224647e-16 -1 2785.4392 1193.0754)" class="st2" width="5.2" height="8.2"/>
			<rect x="1405.6" y="592.4" class="st2" width="5.2" height="14"/>
			<rect x="1405.6" y="606.4" class="st2" width="5.2" height="8.2"/>
			
				<rect x="1400.5" y="600.6" transform="matrix(-1 -1.224647e-16 1.224647e-16 -1 2806.106 1215.287)" class="st2" width="5.2" height="14"/>
			
				<rect x="1400.5" y="592.4" transform="matrix(-1 -1.224647e-16 1.224647e-16 -1 2806.106 1193.0754)" class="st2" width="5.2" height="8.2"/>
			<rect x="1416" y="592.4" class="st2" width="5.2" height="14"/>
			<rect x="1416" y="606.4" class="st2" width="5.2" height="8.2"/>
			
				<rect x="1410.8" y="600.6" transform="matrix(-1 -1.224647e-16 1.224647e-16 -1 2826.7727 1215.287)" class="st2" width="5.2" height="14"/>
			
				<rect x="1410.8" y="592.4" transform="matrix(-1 -1.224647e-16 1.224647e-16 -1 2826.7727 1193.0754)" class="st2" width="5.2" height="8.2"/>
			<rect x="1426.3" y="592.4" class="st2" width="5.2" height="14"/>
			<rect x="1426.3" y="606.4" class="st2" width="5.2" height="8.2"/>
			
				<rect x="1421.1" y="600.6" transform="matrix(-1 -1.224647e-16 1.224647e-16 -1 2847.4392 1215.287)" class="st2" width="5.2" height="14"/>
			
				<rect x="1421.1" y="592.4" transform="matrix(-1 -1.224647e-16 1.224647e-16 -1 2847.4392 1193.0754)" class="st2" width="5.2" height="8.2"/>
			<rect x="1436.6" y="592.4" class="st2" width="5.2" height="14"/>
			<rect x="1436.6" y="606.4" class="st2" width="5.2" height="8.2"/>
			
				<rect x="1431.5" y="600.6" transform="matrix(-1 -1.224647e-16 1.224647e-16 -1 2868.106 1215.287)" class="st2" width="5.2" height="14"/>
			
				<rect x="1431.5" y="592.4" transform="matrix(-1 -1.224647e-16 1.224647e-16 -1 2868.106 1193.0754)" class="st2" width="5.2" height="8.2"/>
			<rect x="1447" y="592.4" class="st2" width="5.2" height="14"/>
			<rect x="1447" y="606.4" class="st2" width="5.2" height="8.2"/>
			
				<rect x="1441.8" y="600.6" transform="matrix(-1 -1.224647e-16 1.224647e-16 -1 2888.7727 1215.287)" class="st2" width="5.2" height="14"/>
			
				<rect x="1441.8" y="592.4" transform="matrix(-1 -1.224647e-16 1.224647e-16 -1 2888.7727 1193.0754)" class="st2" width="5.2" height="8.2"/>
			<rect x="1457.3" y="592.4" class="st2" width="5.2" height="14"/>
			<rect x="1457.3" y="606.4" class="st2" width="5.2" height="8.2"/>
			
				<rect x="1452.1" y="600.6" transform="matrix(-1 -1.224647e-16 1.224647e-16 -1 2909.4392 1215.287)" class="st2" width="5.2" height="14"/>
			
				<rect x="1452.1" y="592.4" transform="matrix(-1 -1.224647e-16 1.224647e-16 -1 2909.4392 1193.0754)" class="st2" width="5.2" height="8.2"/>
			<rect x="1467.6" y="592.4" class="st2" width="5.2" height="14"/>
			<rect x="1467.6" y="606.4" class="st2" width="5.2" height="8.2"/>
			
				<rect x="1462.5" y="600.6" transform="matrix(-1 -1.224647e-16 1.224647e-16 -1 2930.106 1215.287)" class="st2" width="5.2" height="14"/>
			
				<rect x="1462.5" y="592.4" transform="matrix(-1 -1.224647e-16 1.224647e-16 -1 2930.106 1193.0754)" class="st2" width="5.2" height="8.2"/>
			<rect x="1478" y="592.4" class="st2" width="5.2" height="14"/>
			<rect x="1478" y="606.4" class="st2" width="5.2" height="8.2"/>
			
				<rect x="1472.8" y="600.6" transform="matrix(-1 -1.224647e-16 1.224647e-16 -1 2950.7727 1215.287)" class="st2" width="5.2" height="14"/>
			
				<rect x="1472.8" y="592.4" transform="matrix(-1 -1.224647e-16 1.224647e-16 -1 2950.7727 1193.0754)" class="st2" width="5.2" height="8.2"/>
			<rect x="1488.3" y="592.4" class="st2" width="5.2" height="14"/>
			<rect x="1488.3" y="606.4" class="st2" width="5.2" height="8.2"/>
			
				<rect x="1483.1" y="600.6" transform="matrix(-1 -1.224647e-16 1.224647e-16 -1 2971.4392 1215.287)" class="st2" width="5.2" height="14"/>
			
				<rect x="1483.1" y="592.4" transform="matrix(-1 -1.224647e-16 1.224647e-16 -1 2971.4392 1193.0754)" class="st2" width="5.2" height="8.2"/>
			<rect x="1498.6" y="592.4" class="st2" width="5.2" height="14"/>
			<rect x="1498.6" y="606.4" class="st2" width="5.2" height="8.2"/>
			
				<rect x="1493.5" y="600.6" transform="matrix(-1 -1.224647e-16 1.224647e-16 -1 2992.106 1215.287)" class="st2" width="5.2" height="14"/>
			
				<rect x="1493.5" y="592.4" transform="matrix(-1 -1.224647e-16 1.224647e-16 -1 2992.106 1193.0754)" class="st2" width="5.2" height="8.2"/>
			<rect x="1509" y="592.4" class="st2" width="5.2" height="14"/>
			<rect x="1509" y="606.4" class="st2" width="5.2" height="8.2"/>
			
				<rect x="1503.8" y="600.6" transform="matrix(-1 -1.224647e-16 1.224647e-16 -1 3012.7727 1215.287)" class="st2" width="5.2" height="14"/>
			
				<rect x="1503.8" y="592.4" transform="matrix(-1 -1.224647e-16 1.224647e-16 -1 3012.7727 1193.0754)" class="st2" width="5.2" height="8.2"/>
			<rect x="1109" y="592.4" class="st2" width="5.2" height="14"/>
			<rect x="1109" y="606.4" class="st2" width="5.2" height="8.2"/>
			
				<rect x="1103.8" y="600.6" transform="matrix(-1 -1.224647e-16 1.224647e-16 -1 2212.7712 1215.287)" class="st2" width="5.2" height="14"/>
			
				<rect x="1103.8" y="592.4" transform="matrix(-1 -1.224647e-16 1.224647e-16 -1 2212.7712 1193.0754)" class="st2" width="5.2" height="8.2"/>
			<rect x="1098.6" y="592.4" class="st2" width="5.2" height="14"/>
			<rect x="1098.6" y="606.4" class="st2" width="5.2" height="8.2"/>
			
				<rect x="1093.5" y="600.6" transform="matrix(-1 -1.224647e-16 1.224647e-16 -1 2192.1047 1215.287)" class="st2" width="5.2" height="14"/>
			
				<rect x="1093.5" y="592.4" transform="matrix(-1 -1.224647e-16 1.224647e-16 -1 2192.1047 1193.0754)" class="st2" width="5.2" height="8.2"/>
			<rect x="1088.3" y="592.4" class="st2" width="5.2" height="14"/>
			<rect x="1088.3" y="606.4" class="st2" width="5.2" height="8.2"/>
			
				<rect x="1083.1" y="600.6" transform="matrix(-1 -1.224647e-16 1.224647e-16 -1 2171.438 1215.287)" class="st2" width="5.2" height="14"/>
			
				<rect x="1083.1" y="592.4" transform="matrix(-1 -1.224647e-16 1.224647e-16 -1 2171.438 1193.0754)" class="st2" width="5.2" height="8.2"/>
			<rect x="1078" y="592.4" class="st2" width="5.2" height="14"/>
			<rect x="1078" y="606.4" class="st2" width="5.2" height="8.2"/>
			
				<rect x="1072.8" y="600.6" transform="matrix(-1 -1.224647e-16 1.224647e-16 -1 2150.7712 1215.287)" class="st2" width="5.2" height="14"/>
			
				<rect x="1072.8" y="592.4" transform="matrix(-1 -1.224647e-16 1.224647e-16 -1 2150.7712 1193.0754)" class="st2" width="5.2" height="8.2"/>
			<rect x="1067.6" y="592.4" class="st2" width="5.2" height="14"/>
			<rect x="1067.6" y="606.4" class="st2" width="5.2" height="8.2"/>
			
				<rect x="1062.5" y="600.6" transform="matrix(-1 -1.224647e-16 1.224647e-16 -1 2130.1047 1215.287)" class="st2" width="5.2" height="14"/>
			
				<rect x="1062.5" y="592.4" transform="matrix(-1 -1.224647e-16 1.224647e-16 -1 2130.1047 1193.0754)" class="st2" width="5.2" height="8.2"/>
			<rect x="1057.3" y="592.4" class="st2" width="5.2" height="14"/>
			<rect x="1057.3" y="606.4" class="st2" width="5.2" height="8.2"/>
			
				<rect x="1052.1" y="600.6" transform="matrix(-1 -1.224647e-16 1.224647e-16 -1 2109.438 1215.287)" class="st2" width="5.2" height="14"/>
			
				<rect x="1052.1" y="592.4" transform="matrix(-1 -1.224647e-16 1.224647e-16 -1 2109.438 1193.0754)" class="st2" width="5.2" height="8.2"/>
			<rect x="1047" y="592.4" class="st2" width="5.2" height="14"/>
			<rect x="1047" y="606.4" class="st2" width="5.2" height="8.2"/>
			
				<rect x="1041.8" y="600.6" transform="matrix(-1 -1.224647e-16 1.224647e-16 -1 2088.7712 1215.287)" class="st2" width="5.2" height="14"/>
			
				<rect x="1041.8" y="592.4" transform="matrix(-1 -1.224647e-16 1.224647e-16 -1 2088.7712 1193.0754)" class="st2" width="5.2" height="8.2"/>
			<rect x="1036.6" y="592.4" class="st2" width="5.2" height="14"/>
			<rect x="1036.6" y="606.4" class="st2" width="5.2" height="8.2"/>
			
				<rect x="1031.5" y="600.6" transform="matrix(-1 -1.224647e-16 1.224647e-16 -1 2068.1047 1215.287)" class="st2" width="5.2" height="14"/>
			
				<rect x="1031.5" y="592.4" transform="matrix(-1 -1.224647e-16 1.224647e-16 -1 2068.1047 1193.0754)" class="st2" width="5.2" height="8.2"/>
			<rect x="1026.3" y="592.4" class="st2" width="5.2" height="14"/>
			<rect x="1026.3" y="606.4" class="st2" width="5.2" height="8.2"/>
			
				<rect x="1021.1" y="600.6" transform="matrix(-1 -1.224647e-16 1.224647e-16 -1 2047.438 1215.287)" class="st2" width="5.2" height="14"/>
			
				<rect x="1021.1" y="592.4" transform="matrix(-1 -1.224647e-16 1.224647e-16 -1 2047.438 1193.0754)" class="st2" width="5.2" height="8.2"/>
			<rect x="1016" y="592.4" class="st2" width="5.2" height="14"/>
			<rect x="1016" y="606.4" class="st2" width="5.2" height="8.2"/>
			
				<rect x="1010.8" y="600.6" transform="matrix(-1 -1.224647e-16 1.224647e-16 -1 2026.7712 1215.287)" class="st2" width="5.2" height="14"/>
			
				<rect x="1010.8" y="592.4" transform="matrix(-1 -1.224647e-16 1.224647e-16 -1 2026.7712 1193.0754)" class="st2" width="5.2" height="8.2"/>
			<rect x="1005.6" y="592.4" class="st2" width="5.2" height="14"/>
			<rect x="1005.6" y="606.4" class="st2" width="5.2" height="8.2"/>
			
				<rect x="1000.5" y="600.6" transform="matrix(-1 -1.224647e-16 1.224647e-16 -1 2006.1047 1215.287)" class="st2" width="5.2" height="14"/>
			
				<rect x="1000.5" y="592.4" transform="matrix(-1 -1.224647e-16 1.224647e-16 -1 2006.1047 1193.0754)" class="st2" width="5.2" height="8.2"/>
			<rect x="995.3" y="592.4" class="st2" width="5.2" height="14"/>
			<rect x="995.3" y="606.4" class="st2" width="5.2" height="8.2"/>
			
				<rect x="990.1" y="600.6" transform="matrix(-1 -1.224647e-16 1.224647e-16 -1 1985.438 1215.287)" class="st2" width="5.2" height="14"/>
			
				<rect x="990.1" y="592.4" transform="matrix(-1 -1.224647e-16 1.224647e-16 -1 1985.438 1193.0754)" class="st2" width="5.2" height="8.2"/>
			<rect x="985" y="592.4" class="st2" width="5.2" height="14"/>
			<rect x="985" y="606.4" class="st2" width="5.2" height="8.2"/>
			
				<rect x="979.8" y="600.6" transform="matrix(-1 -1.224647e-16 1.224647e-16 -1 1964.7712 1215.287)" class="st2" width="5.2" height="14"/>
			
				<rect x="979.8" y="592.4" transform="matrix(-1 -1.224647e-16 1.224647e-16 -1 1964.7712 1193.0754)" class="st2" width="5.2" height="8.2"/>
			<rect x="974.6" y="592.4" class="st2" width="5.2" height="14"/>
			<rect x="974.6" y="606.4" class="st2" width="5.2" height="8.2"/>
			
				<rect x="969.5" y="600.6" transform="matrix(-1 -1.224647e-16 1.224647e-16 -1 1944.1047 1215.287)" class="st2" width="5.2" height="14"/>
			
				<rect x="969.5" y="592.4" transform="matrix(-1 -1.224647e-16 1.224647e-16 -1 1944.1047 1193.0754)" class="st2" width="5.2" height="8.2"/>
			<rect x="964.3" y="592.4" class="st2" width="5.2" height="14"/>
			<rect x="964.3" y="606.4" class="st2" width="5.2" height="8.2"/>
			
				<rect x="959.1" y="600.6" transform="matrix(-1 -1.224647e-16 1.224647e-16 -1 1923.438 1215.287)" class="st2" width="5.2" height="14"/>
			
				<rect x="959.1" y="592.4" transform="matrix(-1 -1.224647e-16 1.224647e-16 -1 1923.438 1193.0754)" class="st2" width="5.2" height="8.2"/>
			<rect x="954" y="592.4" class="st2" width="5.2" height="14"/>
			<rect x="954" y="606.4" class="st2" width="5.2" height="8.2"/>
			
				<rect x="948.8" y="600.6" transform="matrix(-1 -1.224647e-16 1.224647e-16 -1 1902.7712 1215.287)" class="st2" width="5.2" height="14"/>
			
				<rect x="948.8" y="592.4" transform="matrix(-1 -1.224647e-16 1.224647e-16 -1 1902.7712 1193.0754)" class="st2" width="5.2" height="8.2"/>
			<rect x="943.6" y="592.4" class="st2" width="5.2" height="14"/>
			<rect x="943.6" y="606.4" class="st2" width="5.2" height="8.2"/>
			
				<rect x="938.5" y="600.6" transform="matrix(-1 -1.224647e-16 1.224647e-16 -1 1882.1047 1215.287)" class="st2" width="5.2" height="14"/>
			
				<rect x="938.5" y="592.4" transform="matrix(-1 -1.224647e-16 1.224647e-16 -1 1882.1047 1193.0754)" class="st2" width="5.2" height="8.2"/>
			<rect x="933.3" y="592.4" class="st2" width="5.2" height="14"/>
			<rect x="933.3" y="606.4" class="st2" width="5.2" height="8.2"/>
			
				<rect x="928.1" y="600.6" transform="matrix(-1 -1.224647e-16 1.224647e-16 -1 1861.438 1215.287)" class="st2" width="5.2" height="14"/>
			
				<rect x="928.1" y="592.4" transform="matrix(-1 -1.224647e-16 1.224647e-16 -1 1861.438 1193.0754)" class="st2" width="5.2" height="8.2"/>
			<rect x="923" y="592.4" class="st2" width="5.2" height="14"/>
			<rect x="923" y="606.4" class="st2" width="5.2" height="8.2"/>
			
				<rect x="917.8" y="592.4" transform="matrix(-1 -1.224647e-16 1.224647e-16 -1 1840.7712 1193.0754)" class="st2" width="5.2" height="8.2"/>
			<rect x="912.6" y="592.4" class="st2" width="5.2" height="14"/>
			<polyline class="st2" points="917.8,613.5 917.8,606.4 912.6,606.4 			"/>
			<polyline class="st2" points="912.6,609.6 912.6,600.6 907.5,600.6 			"/>
			
				<rect x="907.5" y="592.4" transform="matrix(-1 -1.224647e-16 1.224647e-16 -1 1820.1047 1193.0754)" class="st2" width="5.2" height="8.2"/>
			<polyline class="st2" points="907.5,605.7 907.5,592.4 902.3,592.4 			"/>
			<polyline class="st2" points="902.3,601.7 902.3,592.4 897.1,592.4 897.1,597.7 			"/>
			<line class="st2" x1="1119.3" y1="587.4" x2="1119.3" y2="589.7"/>
			<line class="st2" x1="1103.8" y1="587.4" x2="1103.8" y2="589.7"/>
			<line class="st2" x1="1088.3" y1="587.4" x2="1088.3" y2="589.7"/>
			<line class="st2" x1="1072.8" y1="587.4" x2="1072.8" y2="589.7"/>
			<line class="st2" x1="1057.3" y1="587.4" x2="1057.3" y2="589.7"/>
			<line class="st2" x1="1041.8" y1="587.4" x2="1041.8" y2="589.7"/>
			<line class="st2" x1="1026.3" y1="587.4" x2="1026.3" y2="589.7"/>
			<line class="st2" x1="1010.8" y1="587.4" x2="1010.8" y2="589.7"/>
			<line class="st2" x1="995.3" y1="587.4" x2="995.3" y2="589.7"/>
			<line class="st2" x1="979.8" y1="587.4" x2="979.8" y2="589.7"/>
			<line class="st2" x1="964.3" y1="587.4" x2="964.3" y2="589.7"/>
			<line class="st2" x1="948.8" y1="587.4" x2="948.8" y2="589.7"/>
			<line class="st2" x1="933.3" y1="587.4" x2="933.3" y2="589.7"/>
			<line class="st2" x1="917.8" y1="587.4" x2="917.8" y2="589.7"/>
			<line class="st2" x1="902.3" y1="587.4" x2="902.3" y2="589.7"/>
			<line class="st2" x1="1173.1" y1="589.7" x2="1173.1" y2="587.4"/>
			<line class="st2" x1="1188.6" y1="589.7" x2="1188.6" y2="587.4"/>
			<line class="st2" x1="1204.1" y1="589.7" x2="1204.1" y2="587.4"/>
			<line class="st2" x1="1219.6" y1="589.7" x2="1219.6" y2="587.4"/>
			<line class="st2" x1="1235.1" y1="589.7" x2="1235.1" y2="587.4"/>
			<line class="st2" x1="1250.6" y1="589.7" x2="1250.6" y2="587.4"/>
			<line class="st2" x1="1266.1" y1="589.7" x2="1266.1" y2="587.4"/>
			<line class="st2" x1="1281.6" y1="589.7" x2="1281.6" y2="587.4"/>
			<line class="st2" x1="1297.1" y1="589.7" x2="1297.1" y2="587.4"/>
			<line class="st2" x1="1312.6" y1="589.7" x2="1312.6" y2="587.4"/>
			<line class="st2" x1="1328.1" y1="589.7" x2="1328.1" y2="587.4"/>
			<line class="st2" x1="1343.6" y1="589.7" x2="1343.6" y2="587.4"/>
			<line class="st2" x1="1359.1" y1="589.7" x2="1359.1" y2="587.4"/>
			<line class="st2" x1="1374.6" y1="589.7" x2="1374.6" y2="587.4"/>
			<line class="st2" x1="1390.1" y1="589.7" x2="1390.1" y2="587.4"/>
			<line class="st2" x1="1405.6" y1="589.7" x2="1405.6" y2="587.4"/>
			<line class="st2" x1="1421.1" y1="589.7" x2="1421.1" y2="587.4"/>
			<line class="st2" x1="1436.6" y1="589.7" x2="1436.6" y2="587.4"/>
			<line class="st2" x1="1452.1" y1="589.7" x2="1452.1" y2="587.4"/>
			<line class="st2" x1="1467.6" y1="589.7" x2="1467.6" y2="587.4"/>
			<line class="st2" x1="1483.1" y1="589.7" x2="1483.1" y2="587.4"/>
			<line class="st2" x1="1498.6" y1="589.7" x2="1498.6" y2="587.4"/>
			<line class="st2" x1="1514.1" y1="589.7" x2="1514.1" y2="587.4"/>
			<line class="st2" x1="1168.8" y1="584.4" x2="1211.2" y2="584.4"/>
			<line class="st2" x1="1168.8" y1="448.7" x2="1168.8" y2="483.9"/>
			<line class="st2" x1="1111.8" y1="584.4" x2="1154.2" y2="584.4"/>
			<line class="st2" x1="1154.2" y1="483.9" x2="1154.2" y2="448.7"/>
			<line class="st2" x1="1154.2" y1="453.9" x2="1168.8" y2="453.9"/>
			<line class="st2" x1="1154.2" y1="459.1" x2="1168.8" y2="459.1"/>
			<line class="st2" x1="1175.2" y1="572.4" x2="1175.2" y2="564.8"/>
			<line class="st2" x1="1181.2" y1="580.1" x2="1181.2" y2="547.6"/>
			<line class="st2" x1="1187.1" y1="568.6" x2="1187.1" y2="554.9"/>
			<line class="st2" x1="1193" y1="580.1" x2="1193" y2="574.1"/>
			<line class="st2" x1="1198.9" y1="580.1" x2="1198.9" y2="556.6"/>
			<line class="st2" x1="1204.8" y1="567.1" x2="1204.8" y2="549.8"/>
			<line class="st2" x1="1204.8" y1="528.3" x2="1204.8" y2="536"/>
			<line class="st2" x1="1204.8" y1="576.3" x2="1204.8" y2="583.9"/>
			<line class="st2" x1="1198.9" y1="520.7" x2="1198.9" y2="553.2"/>
			<line class="st2" x1="1193" y1="532.2" x2="1193" y2="545.8"/>
			<line class="st2" x1="1187.1" y1="520.7" x2="1187.1" y2="526.7"/>
			<line class="st2" x1="1175.2" y1="533.7" x2="1175.2" y2="551"/>
			<line class="st2" x1="1175.2" y1="508.6" x2="1175.2" y2="500.9"/>
			<line class="st2" x1="1181.2" y1="533.4" x2="1181.2" y2="500.9"/>
			<line class="st2" x1="1187.1" y1="504.8" x2="1187.1" y2="491.1"/>
			<line class="st2" x1="1198.9" y1="516.3" x2="1198.9" y2="510.3"/>
			<line class="st2" x1="1193" y1="516.3" x2="1193" y2="492.8"/>
			<line class="st2" x1="1204.8" y1="503.3" x2="1204.8" y2="485.9"/>
			<line class="st2" x1="1204.8" y1="464.5" x2="1204.8" y2="472.2"/>
			<line class="st2" x1="1193" y1="456.8" x2="1193" y2="489.3"/>
			<line class="st2" x1="1198.9" y1="468.3" x2="1198.9" y2="482"/>
			<line class="st2" x1="1187.1" y1="456.8" x2="1187.1" y2="462.8"/>
			<line class="st2" x1="1181.2" y1="456.8" x2="1181.2" y2="480.3"/>
			<line class="st2" x1="1175.2" y1="469.8" x2="1175.2" y2="487.2"/>
			<line class="st2" x1="1204.8" y1="340.6" x2="1204.8" y2="348.3"/>
			<line class="st2" x1="1198.9" y1="333" x2="1198.9" y2="365.5"/>
			<line class="st2" x1="1193" y1="344.5" x2="1193" y2="358.1"/>
			<line class="st2" x1="1193" y1="323.4" x2="1193" y2="336"/>
			<line class="st2" x1="1187.1" y1="333" x2="1187.1" y2="339"/>
			<line class="st2" x1="1175.2" y1="323.4" x2="1175.2" y2="329.4"/>
			<line class="st2" x1="1181.2" y1="333" x2="1181.2" y2="356.5"/>
			<line class="st2" x1="1175.2" y1="346" x2="1175.2" y2="363.3"/>
			<line class="st2" x1="1175.2" y1="384.7" x2="1175.2" y2="377.1"/>
			<line class="st2" x1="1181.2" y1="392.4" x2="1181.2" y2="359.9"/>
			<line class="st2" x1="1187.1" y1="380.9" x2="1187.1" y2="367.2"/>
			<line class="st2" x1="1193" y1="392.4" x2="1193" y2="386.4"/>
			<line class="st2" x1="1204.8" y1="329.4" x2="1204.8" y2="323.4"/>
			<line class="st2" x1="1204.8" y1="379.4" x2="1204.8" y2="362.1"/>
			<line class="st2" x1="1204.8" y1="404.5" x2="1204.8" y2="412.1"/>
			<line class="st2" x1="1198.9" y1="379.6" x2="1198.9" y2="412.1"/>
			<line class="st2" x1="1193" y1="408.3" x2="1193" y2="422"/>
			<line class="st2" x1="1181.2" y1="396.8" x2="1181.2" y2="402.8"/>
			<line class="st2" x1="1187.1" y1="396.8" x2="1187.1" y2="420.3"/>
			<line class="st2" x1="1175.2" y1="409.8" x2="1175.2" y2="427.1"/>
			<line class="st2" x1="1175.2" y1="448.6" x2="1175.2" y2="440.9"/>
			<line class="st2" x1="1187.1" y1="456.2" x2="1187.1" y2="423.7"/>
			<line class="st2" x1="1181.2" y1="444.7" x2="1181.2" y2="431.1"/>
			<line class="st2" x1="1193" y1="456.2" x2="1193" y2="450.2"/>
			<line class="st2" x1="1198.9" y1="456.2" x2="1198.9" y2="432.7"/>
			<line class="st2" x1="1204.8" y1="443.2" x2="1204.8" y2="425.9"/>
			<line class="st2" x1="1118.2" y1="572.4" x2="1118.2" y2="564.8"/>
			<line class="st2" x1="1124.1" y1="580.1" x2="1124.1" y2="547.6"/>
			<line class="st2" x1="1130" y1="568.6" x2="1130" y2="554.9"/>
			<line class="st2" x1="1135.9" y1="580.1" x2="1135.9" y2="574.1"/>
			<line class="st2" x1="1141.9" y1="580.1" x2="1141.9" y2="556.6"/>
			<line class="st2" x1="1147.8" y1="567.1" x2="1147.8" y2="549.8"/>
			<line class="st2" x1="1147.8" y1="528.3" x2="1147.8" y2="536"/>
			<line class="st2" x1="1147.8" y1="576.3" x2="1147.8" y2="583.9"/>
			<line class="st2" x1="1141.9" y1="520.7" x2="1141.9" y2="553.2"/>
			<line class="st2" x1="1135.9" y1="532.2" x2="1135.9" y2="545.8"/>
			<line class="st2" x1="1130" y1="520.7" x2="1130" y2="526.7"/>
			<line class="st2" x1="1118.2" y1="533.7" x2="1118.2" y2="551"/>
			<line class="st2" x1="1118.2" y1="508.6" x2="1118.2" y2="500.9"/>
			<line class="st2" x1="1124.1" y1="533.4" x2="1124.1" y2="500.9"/>
			<line class="st2" x1="1130" y1="504.8" x2="1130" y2="491.1"/>
			<line class="st2" x1="1141.9" y1="516.3" x2="1141.9" y2="510.3"/>
			<line class="st2" x1="1135.9" y1="516.3" x2="1135.9" y2="492.8"/>
			<line class="st2" x1="1147.8" y1="503.3" x2="1147.8" y2="485.9"/>
			<line class="st2" x1="1147.8" y1="464.5" x2="1147.8" y2="472.2"/>
			<line class="st2" x1="1135.9" y1="456.8" x2="1135.9" y2="489.3"/>
			<line class="st2" x1="1141.9" y1="468.3" x2="1141.9" y2="482"/>
			<line class="st2" x1="1130" y1="456.8" x2="1130" y2="462.8"/>
			<line class="st2" x1="1124.1" y1="456.8" x2="1124.1" y2="480.3"/>
			<line class="st2" x1="1118.2" y1="469.8" x2="1118.2" y2="487.2"/>
			<line class="st2" x1="1147.8" y1="340.6" x2="1147.8" y2="348.3"/>
			<line class="st2" x1="1141.9" y1="333" x2="1141.9" y2="365.5"/>
			<line class="st2" x1="1135.9" y1="344.5" x2="1135.9" y2="358.1"/>
			<line class="st2" x1="1135.9" y1="323.4" x2="1135.9" y2="336"/>
			<line class="st2" x1="1130" y1="333" x2="1130" y2="339"/>
			<line class="st2" x1="1118.2" y1="323.4" x2="1118.2" y2="329.4"/>
			<line class="st2" x1="1124.1" y1="333" x2="1124.1" y2="356.5"/>
			<line class="st2" x1="1118.2" y1="346" x2="1118.2" y2="363.3"/>
			<line class="st2" x1="1118.2" y1="384.7" x2="1118.2" y2="377.1"/>
			<line class="st2" x1="1124.1" y1="392.4" x2="1124.1" y2="359.9"/>
			<line class="st2" x1="1130" y1="380.9" x2="1130" y2="367.2"/>
			<line class="st2" x1="1135.9" y1="392.4" x2="1135.9" y2="386.4"/>
			<line class="st2" x1="1147.8" y1="329.4" x2="1147.8" y2="323.4"/>
			<line class="st2" x1="1147.8" y1="379.4" x2="1147.8" y2="362.1"/>
			<line class="st2" x1="1147.8" y1="404.5" x2="1147.8" y2="412.1"/>
			<line class="st2" x1="1141.9" y1="379.6" x2="1141.9" y2="412.1"/>
			<line class="st2" x1="1135.9" y1="408.3" x2="1135.9" y2="422"/>
			<line class="st2" x1="1124.1" y1="396.8" x2="1124.1" y2="402.8"/>
			<line class="st2" x1="1130" y1="396.8" x2="1130" y2="420.3"/>
			<line class="st2" x1="1118.2" y1="409.8" x2="1118.2" y2="427.1"/>
			<line class="st2" x1="1118.2" y1="448.6" x2="1118.2" y2="440.9"/>
			<line class="st2" x1="1130" y1="456.2" x2="1130" y2="423.7"/>
			<line class="st2" x1="1124.1" y1="444.7" x2="1124.1" y2="431.1"/>
			<line class="st2" x1="1135.9" y1="456.2" x2="1135.9" y2="450.2"/>
			<line class="st2" x1="1141.9" y1="456.2" x2="1141.9" y2="432.7"/>
			<line class="st2" x1="1147.8" y1="443.2" x2="1147.8" y2="425.9"/>
			<line class="st2" x1="1157" y1="453.9" x2="1157" y2="459.1"/>
			<line class="st2" x1="1160" y1="453.9" x2="1160" y2="459.1"/>
			<line class="st2" x1="1163" y1="453.9" x2="1163" y2="459.1"/>
			<line class="st2" x1="1166" y1="453.9" x2="1166" y2="459.1"/>
			<line class="st2" x1="1154.2" y1="472.2" x2="1168.8" y2="472.2"/>
			<line class="st2" x1="1154.2" y1="477.4" x2="1168.8" y2="477.4"/>
			<line class="st2" x1="1157" y1="472.2" x2="1157" y2="477.4"/>
			<line class="st2" x1="1160" y1="472.2" x2="1160" y2="477.4"/>
			<line class="st2" x1="1163" y1="472.2" x2="1163" y2="477.4"/>
			<line class="st2" x1="1166" y1="472.2" x2="1166" y2="477.4"/>
			<path class="st2" d="M1095.5,584.4"/>
			<line class="st2" x1="1154.2" y1="584.4" x2="1111.8" y2="584.4"/>
			<g>
				<line class="st1" x1="1421.3" y1="584.4" x2="1317.6" y2="584.4"/>
				<path class="st1" d="M1168.8,584.4h-14.6c0,0,0-100.5,0-100.5h14.6L1168.8,584.4z"/>
				<path class="st1" d="M1421.3,584.4c23.5,0,51.8-34.7,51.8-34.7h-103.7h-103.7c0,0,28.3,34.7,51.8,34.7h-106.4
					c0,0,0-261.1,0-261.1h-42.4v125.3l-14.6,0V323.4h-42.4c0,0,0,261.1,0,261.1h-16.3c-37.7-32.7-61.3-34.7-75-34.7
					c-13.7,0-37.3,2-75,34.7h-65.7l39.5,30.2h594.8v-22.2h1.2l13.5-8C1528.8,584.4,1421.3,584.4,1421.3,584.4z"/>
			</g>
		</g>
		<g>
			<g>
				<path class="st0" d="M1536.2,452.4l4.8-2.9l2.9-16.5c0,0-0.3-2.8-3.9-5.9c-3.8-3.4-3.9-7.3-3.9-7.3s-0.1,3.9-3.9,7.3
					c-3.6,3.1-3.9,5.9-3.9,5.9l2.9,16.5L1536.2,452.4z"/>
			</g>
			<g>
				<path class="st0" d="M1563.8,452.4l4.8-2.9l2.9-16.5c0,0-0.3-2.8-3.9-5.9c-3.8-3.4-3.9-7.3-3.9-7.3s-0.1,3.9-3.9,7.3
					c-3.6,3.1-3.9,5.9-3.9,5.9l2.9,16.5L1563.8,452.4z"/>
			</g>
			<g>
				<polygon class="st0" points="1549.9,614.6 1559.3,614.6 1553.4,569.7 1549.9,569.7 1546.4,569.7 1540.6,614.6 				"/>
			</g>
			<path class="st1" d="M1536.2,419.8c0,0-0.1,3.9-3.9,7.3c-3.6,3.1-3.9,5.9-3.9,5.9l2.9,16.5l4.8,2.9"/>
			<line class="st1" x1="1531.8" y1="452.4" x2="1550.1" y2="452.4"/>
			<path class="st1" d="M1536.2,419.8c0,0,0.1,3.9,3.9,7.3c3.6,3.1,3.9,5.9,3.9,5.9l-2.9,16.5l-4.8,2.9"/>
			<path class="st1" d="M1563.8,419.8c0,0,0.1,3.9,3.9,7.3c3.6,3.1,3.9,5.9,3.9,5.9l-2.9,16.5l-4.8,2.9"/>
			<line class="st1" x1="1568.2" y1="452.4" x2="1549.9" y2="452.4"/>
			<path class="st1" d="M1563.8,419.8c0,0-0.1,3.9-3.9,7.3c-3.6,3.1-3.9,5.9-3.9,5.9l2.9,16.5l4.8,2.9"/>
			<line class="st1" x1="1549.9" y1="442.9" x2="1549.9" y2="569.7"/>
			<polyline class="st1" points="1549.9,569.7 1546.4,569.7 1540.6,614.6 1549.9,614.6 			"/>
			<line class="st1" x1="1547.4" y1="515.8" x2="1552.5" y2="515.8"/>
			<line class="st1" x1="1547.4" y1="520.2" x2="1552.5" y2="520.2"/>
			<line class="st1" x1="1547.4" y1="524.6" x2="1552.5" y2="524.6"/>
			<polyline class="st1" points="1549.9,569.7 1553.4,569.7 1559.3,614.6 1549.9,614.6 			"/>
			<line class="st2" x1="1541.6" y1="607.1" x2="1558.3" y2="607.1"/>
			<line class="st2" x1="1548.4" y1="586.5" x2="1547.3" y2="603.1"/>
			<line class="st2" x1="1551.5" y1="586.5" x2="1552.6" y2="603.1"/>
			<line class="st2" x1="1544.9" y1="581.8" x2="1555" y2="581.8"/>
			<line class="st2" x1="1528.4" y1="433" x2="1544" y2="433"/>
			<line class="st2" x1="1556" y1="433" x2="1571.6" y2="433"/>
			<line class="st2" x1="1533.3" y1="433" x2="1536.2" y2="452.4"/>
			<line class="st2" x1="1539.2" y1="433" x2="1536.2" y2="452.4"/>
			<line class="st2" x1="1560.9" y1="433" x2="1563.8" y2="452.4"/>
			<line class="st2" x1="1566.7" y1="433" x2="1563.8" y2="452.4"/>
			<path class="st2" d="M1533.2,457.8c0.6-2,2.7-3.9,6.9-3.9c4.2,0,9.8,5.2,9.8,13.2"/>
			<path class="st2" d="M1566.7,457.8c-0.6-2-2.7-3.9-6.9-3.9s-9.8,5.2-9.8,13.2"/>
		</g>
		<g>
			<path class="st0" d="M1681.7,559.3V435l-10,32.7c0,0,10.3,20.6,0,41.6c5,6.4,5,21,0,26.7c2.2,4.4,3.8,13.4,4.2,23l0,0
				c-2.7-0.2-5.6-0.4-8.4-0.7c0.5-9.2,2.1-17.9,4.2-22.2c-5-5.7-5-20.3,0-26.7c-10.3-21,0-41.6,0-41.6l-10-32.7c0,0,0,122.6,0,122.6
				c-9.2-1.1-18.2-2.8-24.7-5.2c-20.3-7.7-36.3-11-75.3-11.3c2.6,4.1,7.1,11.5,12.3,20.2l0,0c-16.3-8.2-53.7-17.2-85.3-17.9
				c20.3,14.3,92.7,71.3,92.7,71.3h63.7l16.7-16v16c0,0,5-10,10-25.6c5,15.6,10,25.6,10,25.6s0-35.2,0-35.2L1702,560
				C1702,560,1693.2,560,1681.7,559.3z"/>
			<line class="st2" x1="1581.4" y1="614.6" x2="1605.7" y2="614.6"/>
			<path class="st2" d="M1574,561.2c13.6,22.6,31.7,53.5,31.7,53.5"/>
			<path class="st1" d="M1681.7,559.3V435l-10,32.7c0,0,10.3,20.6,0,41.6c5,6.4,5,21,0,26.7c2.2,4.4,3.8,13.4,4.2,23l0,0
				c-2.7-0.2-5.6-0.4-8.4-0.7c0.5-9.2,2.1-17.9,4.2-22.2c-5-5.7-5-20.3,0-26.7c-10.3-21,0-41.6,0-41.6l-10-32.7c0,0,0,122.6,0,122.6
				c-9.2-1.1-18.2-2.8-24.7-5.2c-20.3-7.7-36.3-11-75.3-11.3c2.6,4.1,7.1,11.5,12.3,20.2l0,0c-16.3-8.2-53.7-17.2-85.3-17.9
				c20.3,14.3,92.7,71.3,92.7,71.3h63.7l16.7-16v16c0,0,5-10,10-25.6c5,15.6,10,25.6,10,25.6s0-35.2,0-35.2L1702,560
				C1702,560,1693.2,560,1681.7,559.3z"/>
			<line class="st2" x1="1681.7" y1="579.5" x2="1681.7" y2="559.3"/>
			<path class="st2" d="M1675.9,558.9c0.6,12.1-0.5,25-4.2,30.1"/>
			<line class="st2" x1="1661.7" y1="598.7" x2="1661.7" y2="557.6"/>
			<path class="st2" d="M1667.5,558.2c-0.7,12.3,0.4,25.6,4.2,30.9"/>
		</g>
		<g>
			<g>
				<path class="st0" d="M844.6,468.7c44.4,124.2-0.5,124.4,0,124.2h0C845,593.1,800.1,592.9,844.6,468.7"/>
			</g>
			<line class="st2" x1="844.5" y1="614.6" x2="844.5" y2="535.4"/>
			<path class="st1" d="M844.5,592.9c0.5,0.1-44.4,0,0-124.2"/>
			<path class="st1" d="M844.6,592.9c-0.5,0.1,44.4,0,0-124.2"/>
		</g>
		<g>
			<g>
				<path class="st0" d="M1623.9,502c34.3,95.9-0.4,96,0,95.9h0C1624.2,598,1589.5,597.9,1623.9,502"/>
			</g>
			<line class="st2" x1="1623.9" y1="614.6" x2="1623.9" y2="553.5"/>
			<path class="st1" d="M1623.9,597.9c0.4,0.1-34.3,0,0-95.9"/>
			<path class="st1" d="M1623.9,597.9c-0.4,0.1,34.3,0,0-95.9"/>
		</g>
		<g>
			<g>
				<path class="st0" d="M137.6,502.7c34.1,95.3-0.4,95.4,0,95.3h0C137.9,598.1,103.4,598,137.6,502.7"/>
			</g>
			<line class="st2" x1="137.6" y1="614.6" x2="137.6" y2="553.9"/>
			<path class="st1" d="M137.5,598c0.4,0.1-34.1,0,0-95.3"/>
			<path class="st1" d="M137.6,598c-0.4,0.1,34.1,0,0-95.3"/>
		</g>
		<g>
			<g>
				<path class="st0" d="M1214.9,590.8c0,0,39.1-27.2,16.3-38c9.8-27.2-4.6-51-16.3-51c-11.7,0-26.1,23.9-16.3,51
					C1175.8,563.6,1214.9,590.8,1214.9,590.8z"/>
			</g>
			<g>
				<path class="st1" d="M1214.9,590.8c0,0-39.1-27.2-16.3-38c-9.8-27.2,4.6-51,16.3-51"/>
				<path class="st1" d="M1214.9,590.8c0,0,39.1-27.2,16.3-38c9.8-27.2-4.6-51-16.3-51"/>
				<line class="st2" x1="1214.9" y1="520" x2="1214.9" y2="614.6"/>
				<line class="st2" x1="1226.6" y1="564.5" x2="1214.9" y2="576.2"/>
				<line class="st2" x1="1203.2" y1="564.5" x2="1214.9" y2="576.2"/>
			</g>
		</g>
		<g>
			<g>
				<path class="st0" d="M767.8,597.4c0,0,28.3-19.6,11.8-27.5c7.1-19.6-3.3-36.9-11.8-36.9c-8.5,0-18.8,17.3-11.8,36.9
					C739.5,577.8,767.8,597.4,767.8,597.4z"/>
			</g>
			<g>
				<path class="st1" d="M767.8,597.4c0,0-28.3-19.6-11.8-27.5c-7.1-19.6,3.3-36.9,11.8-36.9"/>
				<path class="st1" d="M767.8,597.4c0,0,28.3-19.6,11.8-27.5c7.1-19.6-3.3-36.9-11.8-36.9"/>
				<line class="st2" x1="767.8" y1="546.2" x2="767.8" y2="614.6"/>
				<line class="st2" x1="776.3" y1="578.4" x2="767.8" y2="586.9"/>
				<line class="st2" x1="759.3" y1="578.4" x2="767.8" y2="586.9"/>
			</g>
		</g>
		<g>
			<g>
				<path class="st0" d="M569.7,588.9c0,0,42.2-29.3,17.6-41.1c10.6-29.3-4.9-55.2-17.6-55.2c-12.7,0-28.2,25.8-17.6,55.2
					C527.4,559.5,569.7,588.9,569.7,588.9z"/>
			</g>
			<g>
				<path class="st1" d="M569.7,588.9c0,0-42.2-29.3-17.6-41.1c-10.6-29.3,4.9-55.2,17.6-55.2"/>
				<path class="st1" d="M569.7,588.9c0,0,42.2-29.3,17.6-41.1c10.6-29.3-4.9-55.2-17.6-55.2"/>
				<line class="st2" x1="569.7" y1="512.4" x2="569.7" y2="614.6"/>
				<line class="st2" x1="582.3" y1="560.4" x2="569.7" y2="573.2"/>
				<line class="st2" x1="557" y1="560.4" x2="569.7" y2="573.2"/>
			</g>
		</g>
	</g>
</g>
</svg>
